<?xml version="1.0" standalone="no"?>
<!DOCTYPE svg PUBLIC "-//W3C//DTD SVG 20010904//EN"
 "http://www.w3.org/TR/2001/REC-SVG-20010904/DTD/svg10.dtd">
<svg version="1.0" xmlns="http://www.w3.org/2000/svg"
 width="1920.000000pt" height="800.000000pt" viewBox="0 0 1920.000000 800.000000"
 preserveAspectRatio="xMidYMid meet">
<metadata>
Created by potrace 1.15, written by Peter Selinger 2001-2017
</metadata>
<g transform="translate(0.000000,800.000000) scale(0.100000,-0.100000)"
fill="#000000" stroke="none">
<path d="M7494 7974 c-10 -38 3 -189 21 -258 31 -116 83 -199 252 -402 143
-172 162 -198 157 -222 -5 -25 8 -45 102 -158 59 -71 113 -132 118 -137 6 -4
21 -6 34 -5 19 3 48 -27 157 -157 85 -102 131 -163 125 -169 -6 -6 -10 -16
-10 -23 0 -13 383 -481 427 -521 15 -14 32 -20 46 -17 32 7 93 -73 89 -116 -3
-26 25 -63 219 -297 122 -147 229 -273 238 -280 9 -7 25 -11 37 -8 17 5 38
-14 111 -102 273 -326 1682 -2010 2482 -2967 239 -286 536 -640 659 -788 124
-147 250 -288 281 -312 127 -101 268 -149 441 -149 199 0 317 47 512 206 68
54 106 83 86 64 -26 -25 -35 -41 -31 -53 6 -15 7 -15 14 3 7 17 8 16 8 -6 1
-14 5 -20 9 -15 4 6 13 11 21 13 11 2 12 0 3 -11 -9 -11 -8 -14 3 -14 14 0 19
11 16 30 -1 5 3 6 8 2 6 -3 8 -11 5 -18 -5 -14 51 -16 64 -2 4 5 2 5 -5 1 -6
-3 -14 -2 -17 3 -3 5 10 7 29 5 26 -2 34 0 28 9 -5 8 -2 8 9 -1 13 -10 19 -10
32 3 11 11 16 13 16 4 0 -7 7 -5 16 7 8 10 13 12 9 4 -4 -8 1 -6 9 4 12 15 16
16 16 5 0 -12 2 -12 10 1 5 8 10 11 10 5 0 -5 7 1 16 13 12 17 19 20 29 12 9
-8 15 -8 20 0 3 6 11 8 16 5 5 -3 6 2 2 11 -4 11 -3 15 4 11 6 -4 13 -2 15 3
2 6 13 12 25 13 17 1 20 5 12 19 -5 10 -8 18 -5 18 5 0 243 -281 681 -804 197
-235 364 -430 370 -432 6 -3 79 -3 163 -2 l151 3 -197 236 c-203 243 -722 864
-1464 1750 -233 278 -524 627 -648 775 -888 1061 -883 1055 -869 1068 8 7 100
85 204 172 105 87 199 167 210 176 160 135 905 757 1298 1085 355 297 507 429
507 443 0 11 5 20 11 20 6 0 8 -7 5 -15 -5 -13 527 424 559 459 6 6 35 31 65
56 30 24 64 52 75 62 11 9 54 45 95 80 77 64 104 88 143 123 12 12 35 29 50
39 24 14 28 22 22 44 -6 26 -6 26 9 7 9 -12 15 -15 16 -7 0 7 5 10 10 7 6 -3
14 5 20 19 5 14 16 26 23 26 8 0 31 14 53 30 l38 31 21 -23 c12 -13 183 -216
381 -453 197 -236 552 -662 789 -945 751 -897 1461 -1746 1689 -2019 l221
-265 3 188 c1 103 -1 193 -5 200 -5 8 -246 299 -538 647 -291 349 -712 852
-935 1119 -223 267 -498 595 -610 729 -113 134 -313 373 -445 531 -132 158
-399 477 -594 710 -257 307 -350 425 -342 433 26 26 4 60 -159 255 l-171 202
-269 0 c-173 0 -270 -4 -270 -10 0 -5 -7 -10 -16 -10 -9 0 -12 -5 -8 -12 4 -7
4 -10 -1 -6 -7 7 -53 -28 -180 -138 -27 -23 -140 -118 -250 -209 -110 -92
-201 -173 -203 -181 -2 -8 -9 -14 -17 -14 -15 0 -185 -139 -185 -151 0 -5 -5
-9 -11 -9 -6 0 -34 -21 -64 -46 -36 -31 -51 -52 -47 -62 4 -11 1 -14 -11 -9
-11 4 -35 -10 -74 -43 -32 -27 -97 -82 -145 -122 -47 -40 -88 -81 -91 -92 -3
-10 -10 -15 -15 -12 -17 10 -597 -473 -622 -519 -10 -17 -28 -32 -46 -37 -17
-4 -189 -140 -404 -320 -206 -171 -368 -304 -360 -293 16 19 412 352 1530
1285 377 314 737 615 800 669 63 53 180 151 259 217 l143 119 -1217 3 c-669 1
-1761 1 -2427 0 l-1210 -3 101 -54 c71 -38 101 -59 101 -72 0 -12 -23 -31 -62
-55 l-63 -36 -55 28 -55 29 0 83 0 82 -1227 0 -1228 0 -6 -26z m2278 -54 c39
-39 40 -42 36 -95 -3 -40 -11 -62 -28 -80 -30 -32 -82 -48 -122 -40 l-32 7 27
-32 c36 -42 43 -76 26 -124 -19 -53 -67 -86 -127 -86 -40 0 -50 5 -84 40 -32
34 -38 48 -38 83 0 23 8 56 19 73 23 38 83 68 122 60 35 -7 35 -4 7 34 -26 36
-29 106 -5 140 26 38 69 60 116 60 37 0 49 -6 83 -40z m218 -136 c146 -76 150
-88 80 -214 -21 -36 -56 -102 -80 -148 -49 -94 -60 -105 -98 -104 -35 1 -220
100 -233 124 -8 15 -4 26 20 53 17 19 33 51 36 72 9 57 34 108 67 140 35 33
58 74 58 102 0 11 8 22 18 24 9 3 19 5 21 6 2 0 52 -24 111 -55z m1447 -28 c1
-1 -30 -27 -69 -59 -61 -50 -76 -57 -113 -57 -51 0 -195 -26 -206 -37 -4 -5 5
-22 20 -40 25 -30 29 -31 66 -23 22 5 41 7 43 6 3 -4 -113 -106 -121 -106 -3
0 -29 29 -57 65 l-53 64 -39 -20 -39 -20 61 -72 60 -72 -31 -28 -30 -28 -63
77 c-35 41 -67 76 -70 77 -8 2 -66 -36 -66 -43 0 -3 29 -41 65 -84 l66 -79
-22 -23 c-13 -13 -28 -24 -34 -24 -7 0 -40 34 -75 75 -35 41 -66 75 -70 75 -3
0 -18 -12 -33 -28 l-26 -27 67 -79 66 -78 -27 -24 c-16 -13 -32 -24 -37 -24
-5 0 -35 32 -66 70 l-58 70 -23 -27 c-12 -16 -22 -33 -23 -38 0 -6 23 -38 51
-73 l52 -62 -50 -53 c-27 -28 -62 -71 -78 -95 -15 -23 -29 -42 -30 -42 -2 0
10 38 27 85 l29 85 -28 36 -28 37 -23 -54 c-35 -80 -71 -215 -80 -299 -10
-101 4 -366 24 -448 32 -135 90 -232 252 -427 82 -99 148 -182 146 -184 -9
-10 -175 123 -236 189 -199 215 -298 470 -298 765 0 233 56 421 181 607 86
128 217 260 320 323 161 99 335 159 502 174 73 6 193 5 204 -3z m3223 -417 c0
-23 5 -28 28 -31 19 -2 28 -9 30 -25 3 -19 -1 -23 -25 -23 -23 0 -31 -6 -40
-31 -8 -21 -18 -30 -30 -27 -10 1 -23 -1 -30 -5 -6 -4 -18 -1 -26 7 -12 13
-21 8 -68 -35 -29 -27 -59 -49 -66 -49 -7 0 -13 -7 -13 -16 0 -10 6 -14 15
-10 20 7 38 -27 23 -42 -7 -7 -16 -12 -21 -12 -6 0 -25 -17 -43 -37 -26 -31
-35 -36 -45 -25 -19 18 -31 15 -20 -7 8 -14 6 -22 -8 -35 -9 -9 -22 -16 -27
-16 -6 0 -23 -13 -39 -30 -34 -36 -48 -37 -68 -7 -8 12 -30 37 -48 55 l-33 34
40 33 c21 19 45 34 52 35 6 0 11 5 10 11 -2 6 6 16 17 22 11 7 26 20 33 30 7
9 21 17 30 17 10 0 22 10 27 21 6 12 15 22 20 21 6 0 17 4 26 9 12 6 21 4 29
-6 10 -13 21 -7 72 35 49 41 63 48 75 39 10 -9 17 -9 25 -1 16 16 2 30 -26 25
-13 -3 -27 0 -30 6 -9 13 52 91 71 91 7 0 13 5 13 11 0 5 4 8 8 5 4 -2 14 -1
22 4 20 13 40 -7 40 -41z m-1260 -84 c0 -8 -6 -15 -12 -15 -7 -1 2 -7 21 -15
27 -12 31 -18 22 -29 -7 -8 -9 -25 -5 -41 6 -25 9 -27 46 -21 34 6 39 4 36
-11 -2 -12 -15 -20 -37 -23 -28 -4 -36 -11 -46 -39 -12 -36 -29 -49 -39 -32
-3 5 -1 22 4 37 12 29 7 38 -26 48 -34 10 -39 -40 -8 -77 13 -16 24 -33 24
-38 0 -17 -35 -9 -48 12 -13 20 -14 20 -27 2 -13 -17 -15 -16 -28 17 -8 19
-17 43 -20 52 -4 10 -12 15 -21 12 -18 -7 -32 14 -17 29 8 8 6 16 -6 29 -24
27 -2 49 25 25 23 -21 32 -21 32 -3 0 8 9 21 20 29 18 12 18 15 6 20 -28 11
-7 37 24 31 15 -4 31 -1 34 5 11 16 46 13 46 -4z m1364 -28 c14 -8 23 -16 20
-20 -3 -3 0 -14 8 -26 11 -18 10 -23 -12 -38 -13 -9 -32 -25 -42 -35 -10 -10
-25 -18 -33 -18 -9 0 -20 -11 -25 -24 -10 -26 -57 -41 -77 -24 -16 13 -16 7
-3 -26 8 -22 6 -28 -17 -43 -15 -10 -38 -28 -52 -40 -13 -13 -30 -23 -37 -23
-7 0 -23 -14 -35 -31 -18 -25 -27 -30 -51 -27 -26 4 -29 2 -24 -17 5 -19 -5
-31 -52 -68 -31 -25 -68 -57 -82 -71 -14 -14 -31 -26 -37 -26 -6 0 -13 -4 -15
-9 -1 -4 -41 -40 -88 -80 -47 -39 -94 -80 -106 -92 -12 -12 -27 -17 -37 -13
-10 3 -17 1 -17 -5 0 -19 -24 -11 -60 20 l-35 30 30 26 c17 14 52 44 79 67 28
22 75 62 105 89 31 26 67 56 81 67 14 11 52 43 84 70 56 47 60 49 78 33 17
-15 18 -15 12 13 -5 26 0 33 46 69 28 22 67 55 85 73 36 34 63 40 83 20 14
-14 16 -4 3 21 -12 22 -9 27 76 94 39 31 75 61 78 67 9 14 38 12 69 -3z
m-1587 -183 l-28 -24 26 -10 c14 -6 42 -10 61 -10 27 0 34 -4 34 -20 0 -11 -5
-20 -10 -20 -6 0 -22 -12 -35 -27 -21 -26 -22 -30 -8 -45 14 -16 14 -18 -1
-24 -9 -3 -23 -1 -31 6 -13 10 -19 10 -33 -4 -10 -9 -22 -13 -25 -9 -4 3 -7
-1 -7 -10 0 -10 -8 -17 -20 -17 -18 0 -20 7 -20 60 0 33 -3 60 -7 60 -3 0 -14
-7 -24 -16 -11 -10 -25 -14 -36 -9 -15 6 -12 11 22 40 32 27 37 37 27 47 -15
15 -16 48 0 48 6 0 20 -7 29 -16 17 -15 21 -14 55 15 27 24 39 30 48 21 8 -8
4 -18 -17 -36z m-4178 -119 c36 -37 49 -56 39 -60 -7 -2 -107 -37 -223 -76
-115 -39 -215 -75 -220 -80 -13 -10 -105 99 -98 117 2 7 62 32 131 56 70 23
161 54 202 69 41 15 84 27 96 28 12 1 40 -20 73 -54z m5146 -7 c55 -65 59 -74
35 -98 -16 -16 -25 -18 -40 -10 -26 14 -27 13 -22 -18 3 -24 -3 -33 -35 -55
-22 -15 -52 -41 -68 -57 -34 -35 -42 -36 -69 -10 -21 19 -21 19 -86 -36 -67
-56 -83 -61 -88 -28 -2 15 14 34 58 68 63 49 66 56 50 86 -8 16 -1 26 48 64
31 25 59 46 62 46 3 0 18 -18 34 -40 16 -22 32 -38 34 -35 3 2 -7 20 -22 39
-14 19 -26 39 -26 45 0 10 79 81 91 81 4 0 24 -19 44 -42z m-1225 -7 c0 -6 20
-13 45 -17 30 -4 45 -11 45 -21 0 -12 -9 -14 -39 -11 l-39 3 -4 -45 c-3 -37 1
-52 26 -88 24 -34 28 -46 20 -60 -15 -23 -39 -21 -39 3 0 25 -34 77 -46 69 -5
-3 0 -18 11 -34 11 -16 23 -43 27 -60 5 -27 3 -32 -12 -29 -10 2 -23 18 -29
35 -19 54 -59 104 -78 98 -21 -6 -24 15 -5 35 10 11 10 14 0 18 -7 3 -13 11
-13 18 0 11 12 13 48 10 26 -2 49 -4 51 -4 3 -1 -6 -12 -19 -26 -23 -24 -23
-44 0 -30 21 13 31 56 21 93 -6 19 -8 39 -5 44 7 11 34 10 34 -1z m-3850 -99
c0 -15 -7 -38 -16 -50 -14 -21 -13 -30 25 -140 l41 -117 31 3 c23 3 30 0 27
-10 -2 -7 -75 -37 -161 -67 -127 -43 -160 -51 -172 -41 -14 12 5 20 232 95 8
3 0 40 -28 124 -32 96 -45 121 -62 127 -12 3 -30 13 -39 22 -10 8 -18 12 -18
9 0 -4 0 -9 0 -12 0 -3 -6 -18 -14 -34 -19 -36 -56 -44 -101 -21 -34 17 -35
17 -35 -2 0 -10 -11 -30 -24 -43 l-25 -25 24 -69 c12 -38 28 -79 35 -92 l11
-24 -20 23 c-11 13 -30 54 -43 93 -19 61 -25 70 -55 80 -18 6 -33 16 -34 22 0
7 -4 4 -8 -7 -7 -17 -8 -17 -24 7 l-16 25 57 20 c181 66 398 138 405 134 4 -2
7 -15 7 -30z m3741 -128 c59 -70 71 -89 62 -102 -6 -10 -22 -17 -37 -17 -20 1
-25 -3 -21 -16 10 -30 -14 -31 -41 -2 l-25 28 16 -27 c13 -21 14 -31 5 -48
l-11 -21 -36 27 c-36 28 -37 18 -1 -22 16 -18 17 -23 5 -33 -12 -9 -29 6 -92
81 l-77 93 38 32 c20 18 41 33 45 33 13 0 59 -61 53 -71 -3 -5 2 -9 10 -9 25
0 19 15 -21 55 l-37 37 40 34 c21 18 42 33 46 34 4 0 40 -39 79 -86z m349
-484 c28 -14 40 -16 55 -7 18 9 19 9 6 -6 -11 -14 -10 -21 13 -49 15 -18 30
-38 34 -43 5 -6 7 -44 4 -85 -2 -41 -4 -96 -4 -122 -1 -42 -3 -46 -19 -37 -14
7 -24 4 -41 -10 -13 -11 -32 -27 -43 -36 -11 -9 -14 -14 -7 -10 6 3 12 2 12
-3 0 -5 -12 -9 -27 -10 -16 0 -51 -3 -78 -7 -134 -19 -244 78 -245 213 -1 174
185 290 340 212z m-3272 -132 c53 -28 100 -56 104 -62 8 -12 -9 -46 -23 -46
-6 0 -30 -14 -55 -31 l-44 -30 -60 32 -60 32 0 72 c0 39 3 75 7 78 13 14 36 6
131 -45z m-354 8 c46 -19 76 -65 76 -116 0 -80 -52 -130 -137 -130 -42 -1 -46
-2 -31 -14 28 -21 50 -83 42 -122 -3 -19 -10 -36 -14 -39 -10 -6 -57 55 -61
80 -3 11 -16 25 -30 32 -15 7 -38 28 -53 47 l-26 34 55 -1 c53 -2 54 -2 36 18
-62 68 -50 158 27 203 43 25 70 27 116 8z m4066 -140 c10 -13 10 -19 0 -31 -7
-9 -19 -14 -26 -11 -8 3 -13 2 -13 -2 3 -19 -3 -22 -23 -12 -22 11 -22 10 -4
-4 18 -14 18 -17 2 -41 -9 -14 -21 -25 -26 -25 -6 0 -10 -7 -10 -15 0 -8 -5
-15 -11 -15 -5 0 -8 -4 -4 -9 3 -5 -2 -16 -10 -24 -8 -9 -15 -19 -15 -24 0 -5
-9 -15 -20 -23 -11 -8 -20 -22 -20 -31 0 -10 -3 -19 -7 -21 -5 -1 -20 -22 -36
-45 -15 -24 -32 -43 -37 -43 -5 0 -7 -7 -4 -15 8 -20 -2 -19 -42 6 -32 20 -45
39 -25 39 5 0 12 10 16 23 6 22 7 21 17 -5 10 -28 23 -34 45 -20 9 6 7 13 -9
26 -21 19 -21 19 -2 35 31 27 48 62 34 71 -16 10 -3 31 15 24 8 -3 21 6 31 20
12 20 22 25 37 20 20 -6 20 -5 5 10 -9 9 -21 16 -27 16 -12 0 -15 13 -4 23 3
4 12 2 18 -3 9 -8 14 -6 19 6 5 14 9 14 24 3 15 -13 16 -12 4 3 -11 14 -11 21
3 42 10 14 21 26 26 26 5 0 9 8 9 18 0 42 37 46 70 8z m-3811 -27 c110 -58
131 -74 131 -102 0 -31 -171 -347 -197 -364 -40 -27 -83 -2 -164 94 -58 69
-70 89 -62 102 6 9 14 35 18 58 9 54 33 99 78 146 20 21 40 50 43 65 10 48 13
52 35 52 12 0 65 -23 118 -51z m4629 4 c2 -20 -5 -40 -20 -59 -28 -34 -26 -70
5 -78 45 -12 77 -6 109 23 18 16 50 37 70 48 21 11 35 23 32 26 -3 3 3 3 15 0
13 -3 21 -13 21 -26 0 -28 38 -67 65 -67 11 0 26 -5 33 -12 6 -6 28 -12 49
-12 36 -2 38 -3 41 -39 3 -34 1 -37 -25 -39 -49 -2 -57 -2 -86 7 -18 4 -38 3
-54 -4 -15 -7 -29 -8 -32 -4 -10 14 -76 7 -119 -13 -37 -17 -41 -22 -36 -45
13 -63 -72 -81 -125 -27 -32 33 -39 56 -20 75 8 8 8 17 0 32 -9 16 -21 21 -56
21 -24 0 -46 4 -49 9 -10 15 4 39 27 45 l21 5 -22 24 c-30 32 -28 87 4 87 8 0
14 4 14 8 0 11 46 32 70 32 12 0 20 -7 21 -17 1 -18 2 -17 15 25 7 24 29 7 32
-25z m-767 -133 c8 0 23 -7 33 -15 15 -12 17 -17 7 -29 -7 -8 -20 -12 -29 -9
-13 4 -12 2 3 -10 19 -15 21 -14 37 6 15 19 18 20 23 5 4 -9 -1 -28 -10 -42
-14 -21 -15 -29 -5 -41 10 -12 9 -20 -4 -40 -19 -29 -52 -35 -42 -7 5 14 3 13
-10 -3 -8 -11 -19 -27 -24 -35 -7 -12 -11 -12 -21 -3 -10 10 -9 19 9 43 33 44
26 50 -11 8 l-33 -37 -29 25 c-17 14 -42 33 -57 42 l-27 16 22 40 c12 23 24
43 27 46 3 3 18 24 34 47 l28 42 33 -24 c17 -14 38 -25 46 -25z m-734 -23 c21
8 53 -16 46 -34 -4 -11 -3 -14 5 -9 19 12 52 -12 45 -32 -6 -14 -4 -15 9 -4
10 8 18 9 22 3 4 -6 14 -7 22 -4 14 5 15 3 5 -15 -12 -22 1 -32 14 -12 4 6 15
4 30 -6 l25 -16 -30 -43 c-16 -23 -27 -45 -25 -47 3 -3 -7 -18 -22 -34 -15
-16 -26 -32 -25 -36 1 -5 -5 -8 -13 -8 -8 0 -24 -18 -35 -40 -19 -37 -22 -39
-36 -25 -9 8 -20 15 -25 15 -5 0 -9 8 -9 18 0 10 -7 27 -15 38 -13 16 -14 16
-9 2 5 -14 1 -18 -17 -18 -19 0 -13 -7 29 -36 35 -25 52 -44 52 -58 0 -31 -49
-99 -66 -92 -9 4 -30 -18 -61 -67 -26 -39 -48 -73 -49 -75 -2 -5 -103 63 -103
70 -1 5 14 29 33 55 18 27 41 62 51 78 32 52 -1 13 -54 -65 l-51 -74 67 -44
c38 -23 69 -46 70 -50 1 -4 -10 -22 -25 -39 l-27 -33 -93 61 c-59 39 -90 65
-85 72 4 7 46 72 95 145 49 72 86 132 83 132 -2 0 -41 -55 -86 -122 -45 -68
-83 -124 -84 -126 -2 -2 -23 11 -49 28 -28 19 -44 36 -39 43 3 7 24 38 45 70
21 31 36 57 33 57 -3 0 -32 -40 -64 -89 l-58 -89 -32 20 c-17 11 -31 22 -31
25 0 2 19 32 42 66 23 34 41 70 40 81 -1 21 45 86 62 86 6 0 30 29 53 65 l43
64 35 -20 35 -21 -22 -31 c-12 -17 -17 -27 -10 -23 16 10 104 -52 96 -67 -3
-7 5 0 18 16 22 25 26 26 43 12 29 -21 41 -18 20 5 -10 11 -25 20 -34 20 -25
1 -54 27 -45 41 4 7 -1 18 -11 25 -18 13 -18 14 0 34 14 15 21 17 32 9 7 -7
15 -10 16 -8 1 2 9 12 16 22 12 15 11 20 -3 36 -15 17 -15 19 4 36 19 17 21
17 40 0 24 -22 27 -9 4 16 -15 17 -15 20 0 45 16 23 19 24 34 11 9 -8 22 -12
29 -10z m642 -234 l-20 -32 23 -6 c14 -4 43 0 65 8 40 14 41 13 53 -11 14 -33
4 -41 -57 -48 l-50 -6 13 -37 c22 -62 19 -81 -16 -81 -23 0 -30 4 -30 20 0 24
-30 100 -39 100 -4 0 -15 -13 -24 -30 -20 -34 -24 -35 -51 -15 -18 13 -18 15
4 50 22 35 22 37 4 50 -15 11 -17 17 -7 32 11 18 16 19 44 8 12 -4 23 4 39 29
21 35 22 36 45 18 l23 -17 -19 -32z m-218 -39 c33 -19 59 -39 59 -43 0 -4 -12
-18 -26 -30 l-27 -23 31 -20 c28 -17 30 -22 20 -44 -14 -29 -18 -30 -51 -4
l-26 21 -15 -36 c-8 -19 -17 -35 -20 -35 -2 0 -32 18 -65 40 l-61 41 22 29
c20 28 20 31 5 43 -15 11 -15 14 3 37 17 21 21 23 30 10 9 -13 13 -11 30 10
11 14 20 28 20 33 0 12 10 8 71 -29z m-229 -111 c20 -10 41 -27 44 -38 4 -11
15 -26 26 -33 10 -7 15 -18 12 -24 -5 -7 -2 -9 8 -6 8 4 27 -2 42 -11 26 -18
26 -18 8 -42 -31 -39 -43 -67 -32 -74 5 -3 26 19 46 49 l36 55 27 -16 c14 -10
28 -18 30 -20 2 -2 -39 -68 -93 -147 l-97 -144 -30 16 c-16 9 -29 20 -29 23 0
3 16 27 34 54 32 44 37 65 18 65 -4 0 -20 -20 -36 -45 l-28 -46 -33 26 c-19
14 -43 25 -55 25 -17 0 -20 4 -15 23 5 19 4 19 -5 5 -10 -16 -15 -15 -60 13
l-50 30 35 52 c23 35 31 53 23 58 -14 9 39 75 56 72 7 -2 25 20 41 47 16 28
31 50 34 50 2 0 22 -8 43 -17z m-2752 -148 c73 -25 110 -48 110 -69 0 -6 -19
-64 -42 -128 -37 -103 -45 -118 -64 -118 -23 0 -64 -42 -64 -65 0 -7 9 -23 19
-37 20 -24 20 -25 -3 -87 l-23 -63 -90 109 c-50 59 -88 113 -84 118 15 20 53
137 46 143 -13 13 -41 -17 -61 -67 -20 -50 -21 -51 -38 -32 -17 19 -17 22 -1
66 20 52 60 85 102 85 26 0 30 5 53 71 13 39 33 77 44 85 25 17 9 19 96 -11z
m253 -107 c105 -36 105 -26 -13 -346 -56 -152 -109 -285 -117 -294 -20 -22
-24 -19 -98 72 l-55 68 29 78 c20 56 34 80 47 82 38 7 60 72 33 99 -8 8 3 48
37 142 38 107 50 131 63 125 9 -3 42 -15 74 -26z m1996 -173 c0 -11 -8 -45
-18 -75 -14 -40 -16 -60 -9 -74 10 -18 11 -17 23 10 11 23 14 25 14 9 0 -11
-3 -27 -9 -35 -7 -12 -13 -12 -33 -1 -14 7 -31 11 -38 9 -9 -3 -2 -10 16 -19
20 -10 30 -22 31 -38 1 -22 0 -23 -11 -8 -9 13 -28 17 -81 17 -44 0 -64 3 -55
9 11 7 9 14 -15 36 l-29 26 47 -26 c73 -41 95 -13 33 40 -34 29 -36 32 -26 70
9 38 9 39 10 9 1 -18 10 -42 21 -55 20 -24 20 -24 35 -5 20 26 19 38 -6 81
-12 20 -19 38 -16 41 3 3 13 -10 22 -30 10 -20 21 -36 25 -36 11 0 27 22 34
45 3 14 4 12 2 -5 -2 -14 -7 -34 -11 -45 -7 -19 -7 -19 10 -3 11 11 18 31 18
58 0 27 3 37 8 28 5 -7 8 -22 8 -33z m-1171 -197 l53 -24 -227 -189 c-125
-105 -230 -190 -233 -190 -2 0 -13 33 -23 74 -16 61 -17 76 -6 87 7 7 86 73
176 148 140 116 166 134 185 126 12 -4 46 -19 75 -32z m92 -73 c10 -19 11 -31
2 -50 -10 -23 -5 -32 69 -120 44 -52 82 -95 85 -95 2 0 13 6 24 12 14 9 22 10
31 1 8 -8 -45 -58 -202 -189 -262 -220 -248 -209 -262 -194 -9 9 -8 15 7 25
10 8 16 20 13 28 -3 7 -38 53 -77 100 -64 77 -76 87 -105 87 -18 0 -42 8 -54
18 -20 17 -18 20 211 210 128 105 235 192 238 192 4 0 13 -11 20 -25z m1004
-231 c3 -8 2 -12 -4 -9 -6 3 -10 1 -10 -4 0 -6 7 -11 15 -11 11 0 13 -8 9 -30
-5 -22 -2 -31 10 -36 19 -7 56 21 56 43 0 9 13 13 39 13 22 0 42 4 45 9 3 5
15 11 26 14 18 5 19 3 8 -10 -7 -9 -28 -22 -45 -30 -29 -12 -32 -16 -23 -39 6
-14 10 -43 10 -65 0 -31 8 -47 38 -81 20 -23 29 -39 20 -35 -9 3 -19 1 -22 -6
-3 -7 -4 -3 -3 7 1 14 -9 23 -40 33 -39 13 -43 18 -43 49 0 19 -4 34 -10 34
-15 0 -13 -100 3 -101 10 0 10 -2 0 -6 -7 -2 -13 -14 -13 -26 0 -27 68 -127
86 -127 8 0 14 -5 14 -11 0 -6 -10 -9 -22 -7 -14 2 -32 21 -51 53 -16 28 -32
52 -36 55 -15 12 -31 52 -31 79 0 36 -60 127 -81 122 -8 -2 -22 -6 -32 -9 -16
-4 -17 -2 -9 14 6 10 13 31 16 46 6 27 51 88 66 88 4 0 11 -7 14 -16z m-620
-976 c14 -6 32 -21 41 -34 14 -22 16 -22 72 -9 73 18 118 19 131 2 17 -20 45
-155 38 -182 -7 -26 -27 -34 -184 -70 -73 -17 -74 -16 -96 4 -12 12 -33 21
-46 21 -29 0 -60 -27 -60 -51 0 -12 -10 -21 -27 -25 -16 -3 -60 -14 -99 -24
l-72 -17 -61 73 c-72 86 -76 95 -62 123 10 19 54 36 142 55 19 4 28 14 32 34
10 50 38 73 113 92 84 22 106 23 138 8z m312 -370 c9 -42 14 -87 10 -101 -7
-29 8 -24 -250 -82 -170 -39 -200 -43 -210 -31 -6 8 -37 46 -70 85 -32 40 -57
73 -55 75 2 1 41 10 87 20 74 15 84 16 104 2 32 -23 46 -20 78 14 23 24 46 35
117 51 48 11 106 26 128 33 22 7 41 12 42 11 1 0 10 -35 19 -77z m688 4 c-5
-24 6 -42 71 -120 42 -51 81 -92 85 -92 5 0 13 7 18 17 9 15 11 14 21 -4 9
-18 5 -26 -34 -58 -52 -42 -91 -46 -56 -6 l21 24 -43 51 c-24 28 -60 72 -82
98 -32 39 -43 46 -65 42 -17 -4 -34 1 -50 15 l-25 20 50 45 50 45 22 -25 c16
-18 21 -32 17 -52z m-84 -771 c39 -8 37 1 25 -124 -5 -45 -11 -67 -18 -64 -8
3 -11 28 -9 75 3 83 0 86 -96 95 -60 5 -64 4 -73 -20 -5 -13 -9 -42 -9 -63 0
-41 11 -50 60 -50 16 0 32 -4 35 -10 7 -11 -55 -14 -104 -4 -28 6 -31 10 -27
33 3 14 8 55 12 90 l6 63 82 -7 c44 -3 97 -10 116 -14z m-80 -216 c74 -8 148
-18 163 -21 l28 -6 -7 -71 c-3 -40 -10 -75 -13 -80 -4 -4 -63 -1 -132 8 -68 8
-153 19 -189 23 -73 9 -69 0 -55 115 l7 58 31 -6 c18 -3 93 -12 167 -20z"/>
<path d="M13057 6170 c-11 -18 -23 -27 -32 -24 -9 4 -18 -1 -22 -12 -4 -10 -2
-19 5 -22 7 -2 4 -11 -8 -25 -24 -25 -25 -31 -4 -48 13 -10 17 -10 25 2 5 8 9
9 9 2 0 -6 16 -17 36 -23 28 -10 35 -16 31 -31 -3 -12 2 -23 13 -29 14 -8 21
-4 34 14 8 14 17 30 18 36 2 6 18 28 36 48 17 20 32 39 32 43 0 15 -42 21 -50
8 -6 -9 -17 -5 -43 18 -20 17 -33 34 -30 37 6 6 -15 36 -26 36 -4 0 -15 -13
-24 -30z"/>
<path d="M12936 6005 c-9 -14 -21 -23 -25 -20 -9 5 -26 -24 -22 -39 1 -4 -5
-19 -14 -33 -13 -20 -14 -27 -4 -40 12 -13 14 -13 26 3 7 9 10 22 6 28 -3 6
-3 8 2 4 4 -4 14 -3 22 3 18 15 17 4 -3 -26 -15 -23 -14 -24 13 -41 15 -9 40
-25 55 -35 26 -18 28 -18 37 -1 8 14 2 22 -30 40 -22 13 -37 27 -34 33 7 10
13 7 59 -24 28 -20 29 -20 42 -2 12 16 10 21 -24 43 -48 32 -46 31 -39 38 10
10 47 -7 47 -22 0 -20 30 -30 41 -13 16 25 10 36 -38 68 l-48 31 -22 -27 c-14
-17 -23 -22 -23 -14 0 8 8 23 17 33 15 17 15 20 3 28 -22 14 -26 13 -44 -15z"/>
<path d="M14316 5844 c-28 -29 -33 -44 -14 -44 6 0 9 3 5 6 -7 7 24 44 37 44
6 0 5 -5 -2 -12 -7 -7 -12 -19 -12 -28 0 -9 -16 -25 -35 -36 -52 -28 -47 -36
23 -38 14 -1 30 -13 43 -33 19 -29 19 -34 5 -39 -9 -3 -16 -12 -16 -19 0 -19
47 -65 67 -65 14 0 13 3 -6 13 -14 6 -27 19 -29 27 -4 11 1 10 17 -4 11 -11
24 -16 28 -13 3 4 1 7 -5 7 -7 0 -12 5 -12 10 0 6 7 10 17 10 9 0 23 7 32 15
9 9 36 26 61 38 39 21 44 27 46 60 2 33 0 37 -22 37 -16 0 -28 -8 -35 -23 -13
-29 -69 -53 -69 -30 0 8 -18 22 -40 30 -22 9 -40 22 -40 29 0 7 -5 14 -12 16
-7 3 -9 11 -3 24 22 51 11 57 -29 18z"/>
<path d="M11416 4564 c13 -53 -49 -109 -94 -85 -28 15 -28 15 -28 -26 0 -21
-3 -45 -7 -53 -5 -10 17 -44 69 -108 42 -50 80 -92 83 -92 4 0 55 41 114 91
95 80 106 93 95 107 -91 118 -152 182 -168 177 -10 -3 -29 -1 -44 5 -25 9 -26
8 -20 -16z"/>
<path d="M11179 4356 c-1 -20 -2 -40 -3 -45 -1 -5 34 -52 78 -105 51 -62 83
-93 91 -88 22 13 75 61 75 68 0 3 -35 48 -77 99 -68 81 -82 93 -110 93 -17 0
-36 3 -42 7 -7 4 -12 -7 -12 -29z"/>
<path d="M4145 6428 c-42 -23 -45 -36 -45 -200 l0 -158 -50 0 -50 0 0 139 c0
125 -2 141 -21 165 -23 30 -63 34 -95 11 -21 -14 -21 -24 -27 -387 -6 -380
-17 -506 -53 -628 -29 -98 -29 -135 0 -164 27 -28 67 -34 85 -12 31 37 79 227
96 379 l6 57 70 0 69 0 0 -220 c0 -209 1 -221 21 -241 31 -31 89 -23 109 16 8
17 16 32 18 34 1 3 24 -6 51 -18 57 -27 85 -22 106 19 37 72 95 370 95 489 0
26 3 51 6 54 4 4 19 -29 35 -73 15 -44 44 -113 63 -154 20 -41 36 -79 36 -84
0 -5 -36 -43 -80 -85 -91 -87 -99 -110 -51 -158 47 -46 75 -40 159 37 l72 66
70 -66 c39 -36 81 -68 94 -72 30 -7 73 13 98 46 16 22 17 30 7 58 -6 17 -15
32 -19 32 -4 0 -42 32 -84 71 l-75 71 33 66 c47 93 91 221 116 340 24 111 20
135 -26 152 -14 6 -120 10 -235 10 l-209 0 0 104 0 105 224 3 c204 3 226 5
245 22 31 28 28 79 -5 105 -25 20 -39 21 -291 21 l-265 0 -28 -28 -28 -28 -5
-360 c-6 -384 -13 -454 -63 -611 -49 -155 -53 -146 -54 125 l0 243 -25 24
c-23 24 -31 25 -135 25 l-110 0 0 80 0 80 150 0 c137 0 152 2 170 20 41 41 12
120 -45 120 l-25 0 0 144 c0 157 -9 198 -46 215 -30 13 -34 13 -59 -1z m715
-557 c0 -16 -50 -169 -70 -217 -11 -24 -23 -44 -28 -44 -18 0 -117 252 -104
264 9 10 202 7 202 -3z"/>
<path d="M2693 6415 c-34 -14 -43 -31 -43 -81 l0 -34 -99 0 c-96 0 -100 -1
-120 -26 -12 -15 -21 -32 -21 -39 0 -7 9 -24 21 -39 18 -22 28 -26 75 -26 l55
0 -28 -24 c-27 -23 -27 -25 -17 -85 6 -34 8 -64 5 -66 -2 -3 -23 -5 -46 -5
-69 0 -101 -64 -55 -110 17 -17 33 -20 125 -20 l105 0 0 -55 0 -55 -100 0
c-94 0 -103 -2 -125 -25 -29 -28 -31 -51 -9 -83 14 -20 24 -22 99 -22 46 0 86
-4 89 -9 8 -13 -47 -86 -130 -172 -43 -45 -74 -85 -74 -97 0 -36 43 -75 80
-75 28 0 41 8 77 49 24 27 51 61 60 77 10 15 21 27 25 27 4 0 8 -52 8 -115 0
-132 11 -155 75 -155 22 0 43 8 55 20 18 18 20 33 20 146 l0 126 40 -36 c58
-52 110 -45 126 19 9 35 -8 57 -90 120 -42 32 -73 61 -70 66 3 5 47 9 98 9
102 0 126 12 126 61 0 53 -34 69 -144 69 l-86 0 0 55 0 55 98 0 c115 0 142 12
142 64 0 45 -26 66 -83 66 -54 0 -56 5 -27 69 25 55 25 57 -5 86 l-24 25 42 0
c58 0 87 22 87 65 0 52 -26 65 -137 65 l-93 0 0 36 c0 47 -13 70 -48 82 -20 7
-37 6 -59 -3z m123 -272 c-20 -88 -19 -101 9 -127 l28 -26 -129 0 c-103 1
-126 3 -113 13 35 27 40 53 20 106 -10 28 -16 52 -13 55 3 4 50 6 105 6 l99 0
-6 -27z"/>
<path d="M3440 6379 c-73 -33 -249 -79 -278 -73 -16 3 -35 -1 -47 -10 -19 -14
-20 -29 -26 -343 -6 -381 -14 -431 -91 -582 -26 -52 -48 -102 -48 -112 0 -10
12 -31 26 -48 64 -77 136 -8 203 194 33 98 61 268 61 364 l0 61 75 0 75 0 0
-315 0 -316 25 -24 c30 -30 64 -32 99 -4 l26 20 0 320 0 319 36 0 c36 0 73 15
86 34 4 6 8 25 8 41 0 68 -23 75 -244 75 l-186 0 0 99 0 99 73 16 c140 32 296
85 307 106 14 26 -1 55 -43 80 -40 25 -79 24 -137 -1z"/>
<path d="M5463 6271 c-29 -18 -37 -36 -106 -253 -193 -599 -217 -676 -217
-700 0 -36 26 -53 81 -53 86 0 102 21 154 208 l16 57 168 0 169 0 27 -102 c33
-123 57 -155 125 -164 56 -7 98 8 105 38 4 15 -48 191 -142 483 -144 445 -150
460 -182 482 -45 31 -150 32 -198 4z m141 -286 c19 -77 45 -171 56 -210 11
-38 20 -76 20 -82 0 -10 -31 -13 -120 -13 -100 0 -120 2 -120 15 0 8 22 97 49
198 27 100 52 197 56 215 4 19 10 30 15 25 4 -4 24 -71 44 -148z"/>
<path d="M6168 6270 l-28 -21 0 -465 c0 -289 4 -472 10 -484 25 -46 134 -48
170 -3 18 23 20 41 20 179 l0 154 103 0 c175 0 277 36 355 125 54 62 76 134
70 238 -5 107 -40 177 -111 224 -84 56 -130 65 -357 70 -199 5 -206 4 -232
-17z m397 -151 c21 -6 53 -25 70 -43 80 -80 35 -246 -75 -276 -19 -5 -77 -10
-127 -10 l-93 0 0 170 0 170 93 0 c50 0 110 -5 132 -11z"/>
<path d="M7093 6266 l-28 -24 0 -466 0 -465 22 -23 c30 -30 121 -32 152 -4 19
17 21 32 23 180 l3 161 130 6 c191 10 275 44 345 141 63 87 78 238 32 340 -59
133 -178 177 -484 178 -162 0 -168 -1 -195 -24z m435 -159 c50 -27 72 -71 72
-143 0 -76 -26 -119 -90 -152 -39 -20 -57 -22 -145 -20 l-100 3 -3 155 c-1 85
0 160 3 168 8 22 218 12 263 -11z"/>
<path d="M17095 5058 c-27 -16 -743 -617 -752 -631 -4 -7 28 17 71 53 42 36
121 101 175 145 54 44 135 111 181 148 45 37 85 65 89 62 3 -3 1 -9 -5 -13
-16 -10 -24 -61 -9 -56 21 8 26 -25 6 -35 -10 -6 -21 -8 -24 -5 -3 3 -3 -4 0
-17 6 -22 7 -22 14 -3 6 14 8 9 8 -19 1 -23 -3 -36 -9 -32 -5 3 -10 1 -10 -4
0 -6 5 -11 10 -11 6 0 2 -9 -9 -21 -19 -20 -19 -49 0 -49 5 0 9 -10 9 -22 -1
-21 -2 -21 -11 -5 -5 9 -15 17 -21 17 -6 0 0 -11 14 -24 l26 -23 -29 -1 c-17
0 -46 -14 -68 -31 -21 -17 -43 -31 -48 -31 -6 0 -18 -10 -29 -22 l-19 -21 28
18 c15 9 27 14 27 9 0 -4 15 6 33 24 34 33 80 46 83 25 1 -7 2 -18 3 -24 1 -8
5 -8 15 0 18 15 29 0 24 -33 -4 -31 68 -123 99 -128 20 -3 21 -5 10 -27 -14
-28 -93 -57 -100 -37 -7 18 -30 -9 -33 -39 -1 -14 -12 -41 -24 -60 -18 -29
-26 -34 -51 -31 -39 5 -43 10 -21 29 18 17 17 19 -29 69 l-48 53 22 24 c18 20
16 20 -15 -5 -34 -26 -54 -55 -27 -39 12 8 42 -17 71 -57 15 -22 17 -32 8 -47
-6 -13 -16 -18 -26 -14 -10 3 -30 -8 -55 -33 -21 -21 -39 -33 -39 -28 0 6 12
21 26 33 38 33 21 38 -20 5 -31 -25 -34 -31 -21 -43 12 -12 20 -9 60 23 44 37
47 38 66 21 10 -10 19 -21 19 -24 0 -3 -52 -49 -115 -101 -63 -52 -115 -98
-115 -103 0 -9 2 -8 143 108 67 54 97 85 94 96 -3 12 3 16 24 17 39 1 44 -13
13 -37 -19 -15 -24 -26 -20 -43 3 -13 3 -17 0 -10 -8 17 -21 15 -21 -3 0 -8 6
-15 14 -15 7 0 13 -8 13 -17 0 -21 -20 -55 -20 -35 0 6 -4 12 -10 12 -5 0 -6
-7 -3 -17 5 -12 3 -14 -8 -8 -8 5 -11 5 -6 -1 5 -5 13 -10 18 -10 30 -4 31 -7
9 -14 -17 -5 -19 -8 -7 -9 9 -1 17 -8 17 -17 0 -8 -4 -12 -10 -9 -5 3 -10 -1
-10 -9 0 -10 -6 -13 -17 -9 -11 4 -14 3 -9 -5 7 -12 -28 -54 -38 -45 -3 4 -6
-1 -6 -11 0 -19 34 7 263 196 78 65 152 121 165 124 42 12 68 -5 139 -93 39
-48 139 -171 222 -272 92 -112 151 -192 151 -205 0 -12 -6 -31 -14 -41 -15
-21 -42 -22 -229 -4 -65 6 -120 9 -123 7 -2 -3 -10 -77 -18 -166 -8 -97 -18
-167 -26 -177 -7 -8 -27 -15 -46 -15 -36 0 -11 -26 -329 350 -132 156 -179
208 -164 180 7 -14 12 -29 11 -33 -1 -5 2 -6 8 -2 5 3 10 -1 10 -9 0 -9 4 -16
9 -16 5 0 7 -9 4 -20 -3 -11 -10 -17 -16 -13 -6 3 -7 1 -3 -6 4 -6 12 -9 17
-6 5 4 9 -12 9 -34 0 -22 6 -42 13 -45 6 -3 3 -4 -8 -3 -11 2 -19 9 -17 18 2
8 0 10 -4 6 -21 -21 -10 -43 19 -38 4 0 7 -6 7 -15 0 -9 -5 -12 -11 -8 -15 9
-72 14 -64 5 4 -3 10 -6 13 -7 18 -2 42 -17 42 -26 0 -5 -4 -7 -9 -4 -5 3 -11
-1 -14 -9 -4 -9 -1 -12 9 -8 7 3 14 0 14 -7 0 -6 -4 -9 -8 -6 -4 2 -14 1 -22
-5 -10 -6 -11 -9 -2 -9 6 0 12 -5 12 -11 0 -5 -4 -8 -9 -5 -4 3 -8 -10 -7 -29
1 -30 4 -34 21 -29 19 5 19 4 3 -9 -18 -14 -25 -33 -10 -23 5 3 9 -1 9 -8 0
-7 -6 -13 -13 -13 -7 0 -11 4 -8 9 3 4 0 8 -6 8 -7 0 -10 -6 -7 -14 3 -8 1
-17 -6 -20 -7 -3 -2 -3 10 -1 12 3 24 1 28 -5 3 -5 -2 -10 -12 -11 -16 0 -16
-1 2 -9 19 -9 19 -9 -2 -16 -13 -3 -20 -10 -17 -15 3 -5 9 -7 14 -4 4 3 10 -2
14 -10 3 -8 1 -17 -5 -20 -5 -4 -6 -11 -3 -17 4 -6 2 -8 -4 -4 -6 3 -14 1 -18
-6 -11 -18 -4 -102 9 -110 7 -4 8 -8 3 -8 -5 0 -18 8 -29 18 -19 16 -20 16
-10 -3 6 -11 8 -26 6 -33 -3 -6 1 -10 9 -9 7 2 10 2 6 0 -5 -3 -8 -14 -8 -25
0 -11 -10 -29 -22 -39 l-21 -19 29 -1 c18 -1 22 -3 11 -6 -13 -3 -16 -10 -11
-25 3 -11 2 -18 -3 -15 -5 3 -15 1 -23 -4 -12 -8 -11 -9 5 -7 16 2 20 -3 20
-27 0 -16 5 -34 10 -38 6 -5 -1 -6 -15 -2 l-25 6 24 -20 c17 -15 19 -21 8 -21
-9 0 -100 100 -204 222 -103 122 -203 238 -221 258 -31 33 159 -201 341 -420
108 -130 149 -151 221 -111 35 20 1362 1123 1383 1150 17 22 27 76 19 105 -3
14 -126 168 -273 343 -147 175 -347 415 -446 533 -216 259 -238 280 -292 280
-22 -1 -49 -6 -60 -12z m26 -423 c35 -42 69 -75 80 -75 37 0 68 -67 38 -85
-18 -12 -60 5 -89 36 -41 46 -45 18 -4 -30 37 -42 39 -66 8 -78 -11 -4 -28 8
-53 37 -47 54 -74 51 -29 -4 26 -31 29 -41 20 -55 -7 -9 -16 -26 -21 -37 -19
-43 -37 -34 -102 46 -35 44 -69 79 -75 80 -6 0 -17 7 -24 15 -10 12 -10 18 1
32 11 13 11 17 2 20 -17 6 -16 28 1 42 11 9 20 10 36 1 26 -14 45 -4 29 16 -6
8 -10 16 -8 18 26 25 116 96 121 96 4 0 35 -34 69 -75z"/>
<path d="M14660 4779 c0 -5 -5 -7 -12 -3 -7 4 -8 3 -4 -5 4 -6 11 -9 16 -6 5
3 12 0 16 -6 5 -8 3 -9 -6 -4 -9 6 -10 2 -5 -15 5 -15 4 -20 -4 -16 -8 5 -8 0
-1 -19 8 -21 7 -26 -2 -22 -7 2 -11 11 -10 18 2 8 0 10 -4 6 -13 -12 -13 -37
-1 -34 7 1 11 -6 9 -15 -2 -10 2 -26 7 -36 7 -13 6 -23 -1 -30 -7 -7 -8 -12
-4 -12 5 0 3 -7 -4 -15 -7 -8 -15 -13 -19 -11 -4 3 -7 -6 -7 -20 0 -13 4 -24
9 -24 5 0 7 7 4 15 -4 8 -2 17 2 20 5 3 11 -15 12 -39 2 -24 1 -42 -3 -39 -5
2 -8 10 -8 17 0 7 -7 13 -15 13 -15 0 -12 -10 14 -41 12 -14 12 -17 2 -11 -11
6 -13 4 -8 -8 3 -9 3 -27 -2 -39 -6 -18 -9 -19 -14 -5 -4 10 -2 17 3 17 6 0
10 4 10 8 0 5 -6 9 -13 9 -8 0 -12 -13 -12 -33 0 -18 3 -30 7 -28 4 3 5 -9 1
-27 -4 -20 -2 -34 6 -39 9 -5 8 -9 -4 -13 -9 -4 -13 -3 -10 2 3 5 1 12 -4 15
-10 7 -9 -13 2 -31 4 -6 3 -15 -3 -18 -8 -5 -7 -11 1 -21 6 -8 8 -14 4 -14 -4
0 -2 -7 5 -16 11 -13 10 -16 -8 -21 -12 -3 -19 -9 -16 -14 3 -5 9 -7 14 -4 4
3 7 -3 6 -12 -3 -19 -26 -31 -26 -13 0 6 5 8 12 4 7 -5 8 -3 3 6 -6 10 -12 8
-26 -8 -12 -15 -19 -18 -22 -10 -9 23 -7 -55 3 -117 5 -33 12 -78 15 -100 4
-22 11 -69 16 -105 6 -36 12 -83 15 -105 3 -22 9 -62 14 -90 5 -27 12 -72 16
-100 3 -27 9 -70 13 -95 10 -64 4 -80 -27 -81 -30 -1 -76 -7 -108 -14 -17 -4
-25 -19 -40 -75 -21 -80 -33 -86 -77 -37 -27 30 -27 29 3 -10 17 -24 34 -42
38 -40 4 1 8 -2 9 -7 0 -5 9 -13 18 -18 11 -7 13 -13 6 -22 -6 -7 -6 -17 -1
-26 15 -24 11 -33 -7 -19 -15 11 -16 11 -6 0 12 -14 7 -44 -6 -36 -4 2 -8 -2
-8 -9 0 -16 80 48 580 464 195 162 362 308 372 323 24 40 22 93 -6 130 -34 47
-710 847 -715 847 -2 0 -4 -5 -4 -11z"/>
<path d="M4444 4760 c-33 -13 -54 -50 -54 -92 l0 -38 -74 0 c-69 0 -76 -2 -95
-26 -27 -35 -26 -59 4 -89 20 -21 34 -25 85 -25 l60 0 -6 -27 c-13 -58 -63
-150 -107 -199 -54 -60 -60 -92 -22 -129 41 -42 78 -34 138 28 60 61 110 158
134 257 l17 70 73 0 c83 0 78 9 63 -109 -13 -100 -28 -121 -85 -121 -55 0 -74
-24 -54 -71 17 -43 46 -59 107 -59 142 0 175 58 189 326 6 128 5 131 -17 152
-22 20 -34 22 -142 22 l-118 0 0 48 c0 66 -44 103 -96 82z"/>
<path d="M3329 4731 l-24 -19 -5 -504 -5 -503 -227 -3 -227 -2 -20 -27 c-29
-36 -26 -69 8 -104 l29 -29 567 0 c598 0 612 1 629 45 12 34 6 72 -17 93 -22
21 -32 22 -292 24 l-270 3 -3 243 -2 242 218 0 c207 0 221 1 246 21 20 16 26
29 26 58 0 75 0 75 -257 81 l-228 5 -3 175 c-2 163 -4 176 -24 197 -27 29 -86
31 -119 4z"/>
<path d="M6061 4691 c-26 -26 -34 -72 -30 -175 4 -90 22 -126 61 -126 23 0 19
-18 -18 -92 -18 -35 -28 -46 -40 -41 -11 4 -27 -6 -50 -33 l-33 -39 -1 208 c0
207 0 208 -25 232 -23 24 -30 25 -143 25 -106 0 -122 -2 -146 -21 l-26 -20 0
-424 c0 -464 -1 -455 59 -455 36 0 61 28 61 68 l0 32 85 0 c78 0 88 2 110 25
24 23 25 28 25 177 l0 152 41 -39 c22 -22 54 -57 71 -78 l30 -37 -26 -35 c-18
-23 -35 -35 -51 -35 -26 0 -45 -25 -45 -58 0 -33 32 -52 88 -52 l52 0 0 -169
c0 -186 4 -201 59 -201 55 0 61 19 61 208 l0 172 26 0 c14 0 32 -7 40 -15 14
-13 19 -13 46 1 28 15 30 19 26 57 -6 50 -36 116 -60 131 -25 15 -52 -4 -56
-38 -3 -23 -8 -26 -43 -26 -46 0 -47 -3 22 85 106 137 118 174 63 195 -36 14
-66 -4 -97 -61 -16 -27 -32 -49 -36 -49 -4 0 -16 9 -25 19 -17 19 -16 22 28
88 52 77 55 94 24 123 l-22 20 148 0 149 0 -7 -31 c-3 -18 -27 -75 -53 -128
-26 -53 -50 -107 -54 -120 -10 -29 9 -78 40 -105 20 -18 21 -27 21 -257 0
-265 1 -269 66 -269 27 0 37 5 46 25 l11 25 147 0 c130 0 149 2 163 18 41 45
8 89 -68 94 l-50 3 0 40 c0 38 1 40 35 43 45 5 60 18 60 52 0 34 -15 47 -60
52 -33 3 -35 6 -38 41 -3 36 -3 37 32 37 42 0 66 22 66 60 0 34 -23 50 -70 50
-30 0 -31 2 -28 38 3 35 5 37 43 40 45 4 75 26 75 54 0 37 -20 58 -61 64 -32
5 -39 10 -33 23 26 63 28 72 18 88 -18 29 -41 38 -71 27 -22 -7 -32 -22 -49
-69 -21 -59 -22 -60 -62 -63 l-40 -3 16 44 c20 56 8 90 -40 111 -31 13 -24 14
103 15 128 1 137 2 157 24 20 21 22 34 22 139 0 170 30 158 -386 158 -317 0
-335 -1 -353 -19z m-241 -451 l0 -270 -45 0 -45 0 0 270 0 270 45 0 45 0 0
-270z"/>
<path d="M4911 4634 c-20 -25 -21 -40 -21 -215 0 -118 4 -197 11 -213 20 -42
51 -47 262 -44 175 3 197 5 216 22 20 18 21 28 21 228 0 195 -1 209 -20 228
-19 19 -33 20 -234 20 l-215 0 -20 -26z m334 -219 l0 -110 -102 -3 -103 -3 0
109 c0 60 3 112 7 116 4 4 50 5 103 4 l95 -3 0 -110z"/>
<path d="M7172 4623 c-7 -3 -19 -17 -27 -32 -11 -22 -12 -51 -5 -157 14 -194
41 -427 52 -447 22 -42 97 -43 123 -3 14 21 45 278 61 498 6 95 6 97 -19 122
-23 23 -33 26 -99 25 -40 0 -79 -3 -86 -6z"/>
<path d="M4760 4100 c-11 -11 -21 -27 -21 -35 -1 -8 -2 -21 -3 -27 -1 -10 -59
-14 -248 -16 l-247 -2 -20 -27 c-27 -34 -26 -59 4 -88 24 -25 26 -25 215 -25
104 0 190 -3 190 -7 -1 -27 -248 -175 -380 -228 -18 -7 -26 -19 -28 -41 -4
-41 44 -84 93 -84 62 0 242 107 361 213 28 26 54 44 58 40 3 -3 6 -63 6 -133
0 -116 2 -129 21 -146 31 -28 96 -25 120 5 16 20 19 41 19 152 0 71 4 129 8
129 5 0 17 -10 28 -22 38 -43 177 -138 265 -183 113 -56 148 -58 195 -11 58
58 45 80 -77 128 -102 40 -218 105 -274 153 l-40 34 182 1 c100 0 193 4 206 9
44 17 53 87 15 119 -10 8 -87 12 -259 14 l-244 3 -3 25 c-9 64 -97 95 -142 50z"/>
<path d="M7195 3840 c-80 -33 -104 -155 -42 -217 53 -53 163 -50 210 6 76 91
11 222 -110 220 -21 0 -47 -4 -58 -9z"/>
<path d="M6000 3786 c-22 -11 -80 -148 -80 -188 0 -27 42 -50 72 -39 41 16
104 185 80 214 -18 21 -47 26 -72 13z"/>
<path d="M6270 3785 c-11 -13 -11 -29 0 -88 7 -40 17 -80 22 -89 19 -37 88 -9
88 36 0 26 -31 129 -42 144 -14 17 -53 15 -68 -3z"/>
<path d="M9187 3625 c-209 -77 -626 -572 -838 -995 -124 -248 -149 -405 -73
-455 75 -49 218 28 420 230 336 334 648 871 648 1114 0 59 -3 66 -32 92 -36
32 -66 35 -125 14z m-220 -685 l52 -22 -31 -47 c-17 -25 -54 -77 -82 -116 -27
-38 -51 -71 -52 -73 -2 -4 -88 86 -91 97 -2 3 11 14 27 23 34 19 88 99 97 141
3 15 11 26 17 23 6 -2 34 -14 63 -26z"/>
<path d="M4290 2650 l0 -140 138 0 137 0 -3 140 -3 140 -135 0 -134 0 0 -140z
m240 0 l0 -100 -100 0 -100 0 0 100 0 100 100 0 100 0 0 -100z"/>
<path d="M4610 2750 c0 -39 1 -40 35 -40 28 0 35 -4 35 -20 0 -16 -7 -20 -35
-20 -28 0 -35 -4 -35 -20 0 -11 7 -20 15 -20 8 0 15 -9 15 -20 0 -14 7 -20 23
-20 20 0 22 4 19 40 -4 35 -2 40 17 40 19 0 21 -6 21 -59 0 -50 -3 -59 -20
-64 -17 -4 -20 -14 -20 -61 0 -49 2 -56 20 -56 13 0 20 -7 20 -20 0 -13 -7
-20 -20 -20 -13 0 -20 -7 -20 -20 0 -13 -7 -20 -20 -20 -13 0 -20 -7 -20 -20
0 -14 7 -20 24 -20 19 0 23 -4 19 -20 -4 -15 -14 -20 -39 -20 -33 0 -34 1 -34
40 0 36 -2 40 -26 40 -21 0 -25 4 -21 20 4 15 0 20 -14 20 -12 0 -19 7 -19 20
0 17 7 20 40 20 33 0 40 3 40 20 0 11 7 20 15 20 11 0 15 11 15 40 0 29 -4 40
-15 40 -11 0 -15 -11 -15 -40 l0 -40 -60 0 c-53 0 -60 -2 -60 -20 0 -13 -7
-20 -20 -20 -13 0 -20 7 -20 20 0 17 -7 20 -40 20 l-40 0 0 -40 c0 -33 -3 -40
-20 -40 -17 0 -20 7 -20 40 0 33 -3 40 -20 40 -17 0 -20 -7 -20 -40 0 -33 3
-40 20 -40 13 0 20 -7 20 -20 0 -13 -7 -20 -20 -20 -13 0 -20 -7 -20 -20 0
-13 7 -20 20 -20 13 0 20 -7 20 -20 0 -13 7 -20 20 -20 13 0 20 -7 20 -20 0
-17 -7 -20 -40 -20 l-40 0 0 -40 c0 -33 3 -40 20 -40 13 0 20 -7 20 -20 0 -13
-7 -20 -20 -20 -13 0 -20 -7 -20 -20 0 -13 7 -20 20 -20 13 0 20 -7 20 -20 0
-13 -7 -20 -20 -20 -13 0 -20 -7 -20 -20 0 -14 7 -20 21 -20 17 0 20 -5 17
-37 -2 -29 -7 -38 -20 -37 -15 2 -18 -7 -18 -62 0 -57 2 -64 20 -64 11 0 20
-7 20 -15 0 -8 -9 -15 -20 -15 -13 0 -20 -7 -20 -20 0 -13 7 -20 20 -20 13 0
20 -7 20 -20 0 -13 -7 -20 -20 -20 -13 0 -20 -7 -20 -20 0 -17 7 -20 40 -20
33 0 40 3 40 20 0 13 7 20 20 20 13 0 20 -7 20 -20 0 -18 7 -20 79 -20 74 0
79 1 74 20 -4 15 -14 20 -39 20 -27 0 -34 4 -34 20 0 18 7 20 60 20 53 0 60 2
60 20 0 11 7 20 15 20 8 0 15 6 15 14 0 8 -7 16 -15 20 -10 4 -15 -1 -15 -14
0 -17 -7 -20 -40 -20 -29 0 -40 4 -40 15 0 8 7 15 15 15 9 0 15 9 15 25 0 20
5 25 25 25 22 0 25 4 25 35 0 24 5 35 15 35 8 0 15 9 15 20 0 11 -7 20 -15 20
-8 0 -15 9 -15 20 0 17 -7 20 -40 20 -33 0 -40 3 -40 20 0 11 7 20 15 20 8 0
15 9 15 20 0 14 7 20 21 20 12 0 23 8 26 20 4 15 14 20 38 20 24 0 34 5 38 20
4 17 0 20 -34 20 -32 0 -39 3 -39 20 0 15 -7 20 -25 20 -18 0 -25 5 -25 20 0
11 -7 20 -15 20 -8 0 -15 9 -15 20 0 13 -7 20 -20 20 -13 0 -20 -7 -20 -20 0
-13 -7 -20 -20 -20 -17 0 -20 7 -20 40 0 33 3 40 20 40 17 0 20 7 20 40 0 33
3 40 20 40 13 0 20 -7 20 -20 0 -11 7 -20 15 -20 8 0 15 -9 15 -20 0 -11 -7
-20 -15 -20 -8 0 -15 -9 -15 -20 0 -13 7 -20 19 -20 14 0 18 -5 14 -20 -5 -18
0 -20 60 -20 56 0 65 -2 63 -17 -1 -14 8 -19 37 -21 29 -3 37 -7 37 -23 0 -12
7 -19 20 -19 13 0 20 -7 20 -20 0 -13 -7 -20 -20 -20 -13 0 -20 -7 -20 -20 0
-13 -7 -20 -20 -20 -13 0 -20 7 -20 20 0 13 -7 20 -20 20 -18 0 -20 -7 -20
-60 0 -53 -2 -60 -20 -60 -13 0 -20 -7 -20 -20 0 -13 7 -20 20 -20 13 0 20 7
20 20 0 17 7 20 40 20 33 0 40 -3 40 -20 0 -17 7 -20 40 -20 33 0 40 -3 40
-20 0 -13 7 -20 20 -20 13 0 20 7 20 20 0 13 -7 20 -20 20 -13 0 -20 7 -20 20
0 13 7 20 20 20 13 0 20 7 20 20 0 17 7 20 40 20 33 0 40 -3 40 -20 0 -13 -7
-20 -20 -20 -18 0 -20 -7 -20 -75 0 -68 2 -75 20 -75 11 0 20 7 20 15 0 8 9
15 20 15 17 0 20 -7 20 -40 l0 -40 -40 0 c-29 0 -40 -4 -40 -15 0 -8 -9 -15
-20 -15 -18 0 -20 7 -20 55 0 44 -3 55 -16 55 -9 0 -18 9 -21 20 -4 15 -14 20
-40 20 -26 0 -36 5 -40 20 -3 11 -14 20 -24 20 -16 0 -19 -8 -19 -41 0 -33 -3
-40 -17 -37 -10 2 -19 13 -21 25 -2 15 -8 19 -23 16 -17 -5 -20 -13 -17 -62
l3 -56 38 0 c29 0 37 -4 37 -17 0 -25 36 -23 43 2 3 13 10 18 21 14 12 -5 16
0 16 20 0 19 -5 26 -20 26 -11 0 -20 7 -20 15 0 8 9 15 20 15 11 0 20 -7 20
-15 0 -8 9 -15 20 -15 18 0 20 -7 20 -60 l0 -60 40 0 c33 0 40 -3 40 -20 0
-13 -7 -20 -20 -20 -18 0 -20 -7 -20 -60 l0 -60 60 0 c53 0 60 2 60 20 0 13 7
20 20 20 17 0 20 7 20 40 0 33 -3 40 -20 40 -13 0 -20 -7 -20 -19 0 -10 -9
-21 -20 -24 -11 -3 -20 -12 -20 -21 0 -9 -8 -16 -20 -16 -17 0 -20 7 -20 40 0
33 3 40 19 40 16 0 20 8 23 37 2 27 8 39 21 41 12 2 17 -3 17 -17 0 -19 6 -21
60 -21 53 0 60 -2 60 -20 0 -13 -7 -20 -20 -20 -18 0 -20 -7 -20 -60 0 -53 -2
-60 -20 -60 -13 0 -20 -7 -20 -20 0 -13 -7 -20 -20 -20 -17 0 -20 -7 -20 -40
l0 -40 -40 0 c-33 0 -40 3 -40 20 0 18 -7 20 -80 20 -73 0 -80 2 -80 20 0 13
-7 20 -20 20 -13 0 -20 -7 -20 -20 0 -13 7 -20 20 -20 13 0 20 -7 20 -20 0
-13 -7 -20 -20 -20 -13 0 -20 -7 -20 -20 0 -13 -7 -20 -20 -20 -13 0 -20 7
-20 20 0 13 -7 20 -20 20 -13 0 -20 7 -20 20 0 14 7 20 24 20 19 0 23 4 19 20
-3 11 -14 20 -24 20 -15 0 -19 7 -19 40 0 33 3 40 20 40 17 0 20 -7 20 -40 0
-33 3 -40 20 -40 17 0 20 7 20 40 0 33 3 40 20 40 17 0 20 7 20 40 0 33 3 40
20 40 13 0 20 7 20 20 0 12 -7 20 -16 20 -9 0 -18 -9 -21 -20 -3 -11 -14 -20
-24 -20 -15 0 -19 -7 -19 -40 0 -33 -3 -40 -20 -40 -13 0 -20 7 -20 20 0 16
-7 20 -35 20 l-35 0 0 -60 c0 -47 3 -60 15 -60 8 0 15 -9 15 -20 0 -11 -7 -20
-15 -20 -11 0 -15 -11 -15 -40 0 -29 4 -40 15 -40 8 0 15 -9 15 -20 0 -11 -7
-20 -15 -20 -8 0 -15 -9 -15 -20 0 -11 7 -20 15 -20 8 0 15 9 15 20 0 13 7 20
20 20 13 0 20 -7 20 -20 0 -13 7 -20 20 -20 13 0 20 7 20 20 0 13 7 20 20 20
13 0 20 -7 20 -20 0 -13 7 -20 20 -20 13 0 20 7 20 20 0 13 7 20 20 20 13 0
20 -7 20 -20 0 -17 7 -20 40 -20 33 0 40 3 40 20 0 13 7 20 20 20 13 0 20 -7
20 -20 0 -13 7 -20 20 -20 13 0 20 7 20 20 0 13 -7 20 -20 20 -13 0 -20 7 -20
20 0 18 7 20 60 20 53 0 60 -2 60 -20 0 -13 -7 -20 -20 -20 -13 0 -20 -7 -20
-20 0 -13 7 -20 20 -20 13 0 20 7 20 20 0 13 7 20 20 20 17 0 20 7 20 40 0 33
3 40 20 40 13 0 20 -7 20 -20 0 -17 7 -20 40 -20 33 0 40 3 40 20 0 13 7 20
20 20 17 0 20 -7 20 -40 0 -33 -3 -40 -20 -40 -13 0 -20 -7 -20 -20 0 -18 7
-20 60 -20 53 0 60 2 60 20 0 13 7 20 20 20 13 0 20 7 20 20 0 13 7 20 20 20
17 0 20 -7 20 -40 0 -33 3 -40 20 -40 13 0 20 7 20 20 0 17 7 20 40 20 33 0
40 -3 40 -20 0 -19 7 -20 101 -20 90 0 100 2 97 18 -2 12 -14 18 -41 20 -29 3
-37 7 -37 23 0 12 7 19 20 19 17 0 20 7 20 40 0 33 -3 40 -20 40 -13 0 -20 -7
-20 -20 0 -17 -7 -20 -40 -20 -33 0 -40 3 -40 20 0 13 7 20 20 20 13 0 20 7
20 20 0 13 -7 20 -20 20 -18 0 -20 7 -20 60 0 53 2 60 20 60 17 0 20 -7 20
-40 0 -33 3 -40 20 -40 13 0 20 7 20 20 0 13 7 20 20 20 17 0 20 -7 20 -40 0
-33 3 -40 20 -40 18 0 20 7 20 76 0 67 -2 76 -20 81 -16 4 -20 14 -20 44 0 33
3 39 21 39 14 0 19 5 17 18 -2 10 -11 16 -21 14 -12 -2 -17 4 -17 23 0 18 5
25 20 25 11 0 20 7 20 15 0 12 -18 15 -100 15 -91 0 -100 2 -100 19 0 15 -9
20 -40 23 l-40 4 0 -38 c0 -31 -4 -38 -19 -38 -13 0 -21 -8 -23 -22 -2 -19
-10 -24 -40 -26 -35 -3 -38 -1 -38 22 0 19 5 26 20 26 11 0 20 7 20 15 0 8 -9
15 -20 15 -13 0 -20 7 -20 19 0 10 -9 21 -20 24 -16 4 -20 0 -20 -19 0 -17 -6
-24 -20 -24 -14 0 -20 7 -20 24 0 19 -4 23 -20 19 -15 -4 -20 0 -20 16 0 18
-6 21 -40 21 -33 0 -40 3 -40 20 0 17 7 20 40 20 33 0 40 3 40 20 0 13 -7 20
-20 20 -13 0 -20 7 -20 20 0 13 -7 20 -20 20 -13 0 -20 7 -20 20 0 13 -7 20
-20 20 -13 0 -20 7 -20 20 0 17 7 20 40 20 l40 0 0 40 c0 33 -3 40 -20 40 -13
0 -20 -7 -20 -20 0 -13 -7 -20 -20 -20 -13 0 -20 -7 -20 -20 0 -13 -7 -20 -20
-20 -13 0 -20 -7 -20 -20 0 -13 -7 -20 -20 -20 -17 0 -20 7 -20 40 0 33 3 40
20 40 17 0 20 7 20 40 0 33 3 40 20 40 13 0 20 7 20 20 0 13 -7 20 -20 20 -13
0 -20 7 -20 20 0 13 -7 20 -20 20 -13 0 -20 7 -20 20 0 13 -7 20 -20 20 -13 0
-20 7 -20 20 0 13 -7 20 -20 20 -13 0 -20 7 -20 20 0 17 7 20 40 20 33 0 40
-3 40 -20 0 -17 7 -20 40 -20 33 0 40 -3 40 -20 0 -13 7 -20 20 -20 18 0 20
-7 20 -60 l0 -60 60 0 c53 0 60 -2 60 -20 0 -13 -7 -20 -20 -20 -13 0 -20 -7
-20 -20 0 -13 7 -20 20 -20 13 0 20 7 20 20 0 18 7 20 80 20 73 0 80 -2 80
-20 0 -13 -7 -20 -20 -20 -13 0 -20 -7 -20 -20 0 -13 7 -20 20 -20 13 0 20 -7
20 -20 0 -17 -7 -20 -40 -20 -33 0 -40 -3 -40 -20 0 -13 -7 -20 -20 -20 -18 0
-20 -7 -20 -60 l0 -60 40 0 c33 0 40 -3 40 -20 0 -12 7 -20 16 -20 9 0 18 9
21 20 3 11 14 20 24 20 17 0 19 8 19 60 0 53 2 60 20 60 18 0 20 -7 20 -60 l0
-60 40 0 c34 0 40 -3 40 -21 0 -14 5 -19 18 -17 13 2 18 15 20 61 l3 57 -41 0
c-33 0 -40 3 -40 20 0 13 -7 20 -20 20 -13 0 -20 7 -20 20 0 13 -7 20 -20 20
-13 0 -20 7 -20 20 0 18 7 20 60 20 l60 0 0 -40 c0 -33 3 -40 20 -40 13 0 20
7 20 20 0 13 7 20 20 20 18 0 20 -7 20 -60 0 -53 2 -60 20 -60 14 0 20 -7 20
-21 0 -25 33 -22 38 4 2 12 -3 17 -17 17 -28 0 -28 36 -1 43 18 5 20 14 20 81
0 69 -2 76 -20 76 -13 0 -20 7 -20 19 0 10 9 21 20 24 15 4 20 14 20 41 0 35
-1 36 -40 36 -33 0 -40 3 -40 20 0 13 -7 20 -20 20 -17 0 -20 -7 -20 -40 0
-33 -3 -40 -20 -40 -13 0 -20 7 -20 20 0 18 -7 20 -80 20 -73 0 -80 -2 -80
-20 0 -17 -7 -20 -40 -20 -33 0 -40 3 -40 20 0 13 7 20 20 20 13 0 20 7 20 20
0 17 -7 20 -40 20 -33 0 -40 3 -40 20 0 13 -7 20 -20 20 -13 0 -20 -7 -20 -20
0 -17 -7 -20 -40 -20 -33 0 -40 3 -40 20 0 13 -7 20 -20 20 -13 0 -20 7 -20
20 0 13 -7 20 -20 20 -13 0 -20 7 -20 20 0 13 7 20 20 20 13 0 20 7 20 20 0
13 7 20 20 20 13 0 20 7 20 20 0 13 -7 20 -20 20 -13 0 -20 7 -20 20 0 13 7
20 20 20 17 0 20 7 20 40 0 33 -3 40 -20 40 -13 0 -20 -7 -20 -20 0 -13 -7
-20 -20 -20 -17 0 -20 7 -20 40 0 33 3 40 20 40 13 0 20 7 20 20 0 13 7 20 20
20 13 0 20 -7 20 -20 0 -17 7 -20 40 -20 l40 0 0 -40 c0 -33 -3 -40 -20 -40
-18 0 -20 -7 -20 -80 0 -73 -2 -80 -20 -80 -13 0 -20 -7 -20 -20 0 -13 7 -20
20 -20 13 0 20 7 20 20 0 13 7 20 20 20 17 0 20 7 20 40 0 33 3 40 20 40 13 0
20 -7 20 -20 0 -13 7 -20 20 -20 13 0 20 -7 20 -20 0 -13 -7 -20 -20 -20 -13
0 -20 -7 -20 -20 0 -17 7 -20 40 -20 33 0 40 -3 40 -20 0 -13 7 -20 20 -20 13
0 20 -7 20 -20 0 -13 7 -20 20 -20 17 0 20 7 20 40 0 33 3 40 20 40 13 0 20
-7 20 -20 0 -13 7 -20 20 -20 13 0 20 -7 20 -20 0 -13 7 -20 20 -20 13 0 20 7
20 20 0 13 -7 20 -20 20 -13 0 -20 7 -20 20 0 13 -7 20 -20 20 -13 0 -20 7
-20 20 0 13 -7 20 -20 20 -13 0 -20 -7 -20 -20 0 -13 -7 -20 -20 -20 -18 0
-20 7 -20 60 0 53 -2 60 -20 60 -13 0 -20 -7 -20 -20 0 -13 -7 -20 -20 -20
-17 0 -20 7 -20 40 l0 40 40 0 c33 0 40 3 40 20 0 17 -7 20 -40 20 -33 0 -40
3 -40 20 0 13 7 20 20 20 13 0 20 7 20 20 0 13 7 20 20 20 17 0 20 7 20 40 0
33 -3 40 -20 40 -17 0 -20 -7 -20 -40 l0 -40 -40 0 c-33 0 -40 3 -40 20 0 13
7 20 20 20 13 0 20 7 20 20 0 18 -7 20 -60 20 -53 0 -60 -2 -60 -20 0 -13 -7
-20 -20 -20 -13 0 -20 7 -20 20 0 18 -7 20 -60 20 -53 0 -60 -2 -60 -20 0 -13
-7 -20 -20 -20 -13 0 -20 7 -20 20 0 13 -7 20 -20 20 -13 0 -20 -7 -20 -20 0
-13 7 -20 20 -20 13 0 20 -7 20 -20 0 -13 -7 -20 -20 -20 -13 0 -20 -7 -20
-20 0 -13 -7 -20 -20 -20 -13 0 -20 7 -20 20 0 18 -7 20 -60 20 -53 0 -60 -2
-60 -20 0 -13 -7 -20 -20 -20 -13 0 -20 -7 -20 -20 0 -13 -7 -20 -20 -20 -17
0 -20 7 -20 40 0 33 3 40 20 40 13 0 20 7 20 20 0 13 7 20 20 20 13 0 20 7 20
20 0 26 -30 26 -37 1 -3 -11 -13 -21 -24 -24 -10 -3 -19 -12 -19 -21 0 -12
-10 -16 -40 -16 l-40 0 0 40 c0 39 -1 40 -35 40 -34 0 -35 -1 -35 -40z m310
-100 c0 -13 7 -20 20 -20 13 0 20 -7 20 -20 0 -13 7 -20 20 -20 13 0 20 7 20
20 0 13 7 20 20 20 17 0 20 -7 20 -40 0 -33 3 -40 20 -40 17 0 20 7 20 40 0
33 3 40 20 40 17 0 20 -7 20 -40 0 -33 3 -40 20 -40 13 0 20 -7 20 -20 0 -13
-7 -20 -20 -20 -13 0 -20 7 -20 20 0 13 -7 20 -20 20 -17 0 -20 -7 -20 -40 0
-33 -3 -40 -20 -40 -17 0 -20 7 -20 40 0 33 -3 40 -20 40 -13 0 -20 -7 -20
-20 0 -13 -7 -20 -20 -20 -17 0 -20 7 -20 40 0 33 -3 40 -20 40 -13 0 -20 7
-20 20 0 17 -7 20 -40 20 -33 0 -40 -3 -40 -20 0 -13 -7 -20 -20 -20 -13 0
-20 -7 -20 -20 0 -13 7 -20 20 -20 13 0 20 -7 20 -20 0 -13 7 -20 20 -20 13 0
20 7 20 20 0 13 7 20 20 20 13 0 20 -7 20 -20 0 -13 -7 -20 -20 -20 -13 0 -20
-7 -20 -20 0 -13 7 -20 20 -20 13 0 20 -7 20 -20 0 -13 -7 -20 -20 -20 -13 0
-20 -7 -20 -20 0 -17 -7 -20 -40 -20 -33 0 -40 -3 -40 -20 0 -17 7 -20 40 -20
33 0 40 -3 40 -20 0 -13 7 -20 20 -20 17 0 20 7 20 40 l0 40 40 0 40 0 0 -40
0 -40 40 0 c33 0 40 -3 40 -20 0 -13 -7 -20 -20 -20 -13 0 -20 -7 -20 -20 0
-17 -7 -20 -40 -20 -33 0 -40 3 -40 20 0 13 7 20 20 20 13 0 20 7 20 20 0 17
-7 20 -40 20 -33 0 -40 -3 -40 -20 0 -17 -7 -20 -40 -20 -33 0 -40 -3 -40 -20
0 -17 7 -20 40 -20 33 0 40 -3 40 -20 0 -17 -7 -20 -40 -20 -33 0 -40 -3 -40
-20 0 -13 -7 -20 -20 -20 -13 0 -20 7 -20 20 0 13 -7 20 -20 20 -13 0 -20 7
-20 20 0 13 -7 20 -20 20 -17 0 -20 7 -20 40 0 33 3 40 20 40 17 0 20 -7 20
-40 0 -33 3 -40 20 -40 13 0 20 7 20 20 0 13 7 20 20 20 13 0 20 7 20 20 0 13
-7 20 -20 20 -13 0 -20 7 -20 20 0 17 -7 20 -40 20 -33 0 -40 3 -40 20 0 13 7
20 20 20 13 0 20 7 20 20 0 13 -7 20 -20 20 -18 0 -20 7 -20 60 0 53 2 60 20
60 13 0 20 7 20 20 0 13 7 20 20 20 13 0 20 7 20 20 0 13 7 20 20 20 13 0 20
7 20 20 0 17 7 20 40 20 33 0 40 -3 40 -20z m-360 -480 c0 -11 -7 -20 -15 -20
-8 0 -15 -9 -15 -20 0 -11 7 -20 15 -20 8 0 15 9 15 20 0 15 7 20 25 20 18 0
25 -5 25 -20 0 -15 -7 -20 -25 -20 -18 0 -25 -5 -25 -20 0 -11 -7 -20 -15 -20
-8 0 -15 -9 -15 -20 0 -13 -7 -20 -20 -20 -13 0 -20 -7 -20 -20 0 -13 7 -20
20 -20 13 0 20 -7 20 -20 0 -17 7 -20 40 -20 34 0 40 -3 40 -21 0 -19 -5 -21
-60 -17 l-60 3 0 -37 c0 -31 4 -38 20 -38 11 0 20 7 20 15 0 8 9 15 20 15 13
0 18 -5 14 -15 -4 -8 -12 -15 -20 -15 -8 0 -14 -10 -14 -25 0 -18 -5 -25 -20
-25 -11 0 -20 -7 -20 -15 0 -8 -9 -15 -20 -15 -13 0 -20 7 -20 19 0 12 7 18
17 17 12 0 19 7 21 22 3 21 0 22 -57 22 -58 0 -61 -1 -61 -25 0 -18 -5 -25
-20 -25 -17 0 -20 7 -20 40 0 33 3 40 20 40 19 0 20 7 20 100 0 93 -1 100 -20
100 -13 0 -20 7 -20 20 0 13 7 20 20 20 13 0 20 -7 20 -20 0 -13 7 -20 20 -20
17 0 20 7 20 40 0 33 3 40 20 40 13 0 20 7 20 20 0 18 7 20 55 20 48 0 55 -2
55 -20z m480 -120 c0 -53 2 -60 20 -60 17 0 20 7 20 40 l0 40 40 0 40 0 0 -40
0 -40 -40 0 c-33 0 -40 -3 -40 -20 0 -13 -7 -20 -20 -20 -13 0 -20 7 -20 20 0
13 -7 20 -20 20 -13 0 -20 7 -20 20 0 13 -7 20 -20 20 -17 0 -20 7 -20 40 l0
40 40 0 40 0 0 -60z m320 -276 c0 -11 18 -14 80 -14 73 0 80 -2 80 -20 0 -18
-7 -20 -80 -20 -73 0 -80 2 -80 20 0 17 -7 20 -40 20 -33 0 -40 -3 -40 -20 0
-13 7 -20 20 -20 13 0 20 -7 20 -20 0 -13 -7 -20 -20 -20 -13 0 -20 -7 -20
-20 0 -17 -7 -20 -40 -20 -33 0 -40 3 -40 20 0 13 -7 20 -20 20 -13 0 -20 7
-20 20 0 13 7 20 20 20 13 0 20 -7 20 -20 0 -13 7 -20 20 -20 17 0 20 7 20 40
0 33 3 40 20 40 12 0 20 7 20 18 0 14 7 17 40 14 26 -3 40 -9 40 -18z m40
-194 c0 -93 1 -100 20 -100 13 0 20 -7 20 -20 0 -13 7 -20 20 -20 13 0 20 -7
20 -20 0 -13 -7 -20 -20 -20 -13 0 -20 7 -20 20 0 13 -7 20 -20 20 -13 0 -20
-7 -20 -20 0 -13 -7 -20 -20 -20 -13 0 -20 -7 -20 -20 0 -13 -7 -20 -20 -20
-17 0 -20 7 -20 40 0 33 3 40 20 40 18 0 20 7 20 60 0 53 -2 60 -20 60 -17 0
-20 -7 -20 -40 l0 -40 -40 0 c-33 0 -40 -3 -40 -20 0 -13 -7 -20 -20 -20 -18
0 -20 7 -20 60 0 53 -2 60 -20 60 -17 0 -20 -7 -20 -40 l0 -40 -40 0 c-33 0
-40 -3 -40 -20 0 -13 -7 -20 -20 -20 -17 0 -20 7 -20 40 0 33 3 40 20 40 13 0
20 7 20 20 0 17 7 20 40 20 33 0 40 3 40 20 0 13 -7 20 -20 20 -13 0 -20 7
-20 20 0 13 7 20 20 20 13 0 20 -7 20 -20 0 -18 7 -20 80 -20 73 0 80 2 80 20
0 13 7 20 20 20 13 0 20 7 20 20 0 13 7 20 20 20 19 0 20 -7 20 -100z"/>
<path d="M5480 2650 l0 -140 140 0 141 0 -3 138 -3 137 -137 3 -138 3 0 -141z
m240 0 l0 -100 -100 0 -100 0 0 100 0 100 100 0 100 0 0 -100z"/>
<path d="M6050 2625 l0 -135 140 0 140 0 0 135 0 135 -140 0 -140 0 0 -135z
m240 5 l0 -100 -100 0 -100 0 0 100 0 100 100 0 100 0 0 -100z"/>
<path d="M6570 2745 c0 -11 -11 -15 -40 -15 l-40 0 0 -40 c0 -33 -3 -40 -20
-40 -13 0 -20 -7 -20 -20 0 -13 7 -20 20 -20 13 0 20 -7 20 -20 0 -13 -7 -20
-20 -20 -17 0 -20 -7 -20 -40 0 -33 -3 -40 -20 -40 -13 0 -20 7 -20 20 0 13
-7 20 -20 20 -17 0 -20 -7 -20 -40 l0 -40 -60 0 c-53 0 -60 -2 -60 -20 0 -13
-7 -20 -20 -20 -13 0 -20 7 -20 20 0 17 -7 20 -40 20 -33 0 -40 -3 -40 -20 0
-13 -7 -20 -20 -20 -13 0 -20 7 -20 20 0 13 -7 20 -20 20 -17 0 -20 -7 -20
-40 0 -33 3 -40 20 -40 13 0 20 -7 20 -20 0 -13 -7 -20 -20 -20 -13 0 -20 -7
-20 -20 0 -13 7 -20 20 -20 13 0 20 -7 20 -20 0 -13 -7 -20 -20 -20 -17 0 -20
-7 -20 -40 0 -33 3 -40 20 -40 13 0 20 7 20 20 0 13 7 20 20 20 17 0 20 -7 20
-40 0 -33 3 -40 20 -40 17 0 20 7 20 40 0 33 3 40 20 40 13 0 20 -7 20 -20 0
-13 7 -20 20 -20 18 0 20 7 20 60 0 53 -2 60 -20 60 -13 0 -20 7 -20 20 0 13
7 20 20 20 13 0 20 7 20 20 0 13 7 20 20 20 13 0 20 -7 20 -20 0 -13 7 -20 20
-20 13 0 20 -7 20 -20 0 -13 -7 -20 -20 -20 -13 0 -20 -7 -20 -20 0 -13 7 -20
20 -20 13 0 20 -7 20 -20 0 -13 -7 -20 -20 -20 -13 0 -20 -7 -20 -20 0 -13 7
-20 20 -20 13 0 20 7 20 20 0 13 7 20 20 20 17 0 20 7 20 40 l0 40 40 0 40 0
0 -40 c0 -33 -3 -40 -20 -40 -13 0 -20 -7 -20 -20 0 -13 -7 -20 -20 -20 -13 0
-20 -7 -20 -20 0 -18 -7 -20 -60 -20 -53 0 -60 -2 -60 -20 0 -13 -7 -20 -20
-20 -13 0 -20 -7 -20 -20 0 -13 7 -20 20 -20 13 0 20 -7 20 -20 0 -13 -7 -20
-20 -20 -13 0 -20 -7 -20 -20 0 -13 -7 -20 -20 -20 -18 0 -20 7 -20 60 l0 60
-40 0 c-33 0 -40 3 -40 20 0 13 -7 20 -20 20 -13 0 -20 -7 -20 -20 0 -13 7
-20 20 -20 17 0 20 -7 20 -40 0 -33 -3 -40 -20 -40 -17 0 -20 -7 -20 -40 0
-33 3 -40 20 -40 17 0 20 7 20 40 0 33 3 40 20 40 13 0 20 -7 20 -20 0 -13 7
-20 20 -20 13 0 20 -7 20 -20 0 -13 7 -20 20 -20 13 0 20 -7 20 -20 0 -17 -7
-20 -40 -20 l-40 0 0 -40 c0 -33 -3 -40 -20 -40 -13 0 -20 7 -20 20 0 13 -7
20 -20 20 -12 0 -20 -7 -20 -16 0 -9 9 -18 20 -21 16 -4 20 -14 20 -44 0 -33
-3 -39 -21 -39 -14 0 -19 -5 -17 -17 5 -26 38 -30 38 -5 0 11 9 22 20 25 16 4
20 0 20 -19 0 -17 6 -24 20 -24 11 0 20 -7 20 -15 0 -12 13 -15 60 -15 47 0
60 3 60 15 0 11 11 15 40 15 35 0 40 3 40 23 0 20 -4 22 -40 19 -35 -4 -40 -2
-40 17 0 19 6 21 60 21 l60 0 0 -40 0 -40 41 0 40 0 -3 -37 -3 -38 -58 0 -57
0 0 -57 c0 -51 2 -58 20 -58 13 0 20 -7 20 -20 0 -13 -7 -20 -20 -20 -17 0
-20 -7 -20 -40 0 -33 3 -40 20 -40 13 0 20 -7 20 -20 0 -13 -7 -20 -20 -20
-13 0 -20 -7 -20 -20 0 -13 7 -20 20 -20 13 0 20 7 20 20 0 13 7 20 20 20 13
0 20 -7 20 -20 0 -17 7 -20 40 -20 33 0 40 3 40 20 0 12 7 20 16 20 9 0 18 -9
21 -20 3 -11 14 -20 24 -20 15 0 19 7 19 40 0 33 -4 40 -19 40 -10 0 -21 9
-24 20 -4 15 -14 20 -41 20 -29 0 -36 4 -36 20 0 17 7 20 40 20 34 0 40 3 40
21 0 17 5 20 37 17 27 -2 39 -8 41 -20 2 -13 -3 -18 -17 -18 -18 0 -21 -6 -21
-40 0 -30 4 -40 16 -40 9 0 18 -9 21 -20 3 -11 14 -20 24 -20 15 0 19 7 19 40
0 30 4 40 16 40 9 0 18 -9 21 -20 3 -11 14 -20 24 -20 12 0 19 -7 19 -20 0
-13 -7 -20 -20 -20 -13 0 -20 -7 -20 -20 0 -13 7 -20 20 -20 13 0 20 7 20 20
0 17 7 20 39 20 34 0 38 3 34 20 -4 15 -14 20 -39 20 -32 0 -34 2 -34 36 0 27
-5 37 -20 41 -11 3 -20 14 -20 24 0 16 8 19 55 19 48 0 55 -2 55 -20 0 -15 7
-20 25 -20 18 0 25 -5 25 -20 0 -11 7 -20 15 -20 8 0 15 9 15 20 0 11 -7 20
-15 20 -8 0 -15 9 -15 20 0 11 7 20 15 20 8 0 15 9 15 20 0 14 7 20 24 20 19
0 23 4 19 20 -5 18 0 20 36 20 33 0 41 -3 41 -19 0 -10 -9 -21 -20 -24 -11 -3
-20 -12 -20 -20 0 -8 -9 -17 -20 -20 -17 -4 -20 -14 -20 -60 0 -46 -3 -55 -20
-60 -11 -3 -20 -12 -20 -21 0 -9 8 -16 20 -16 13 0 20 -7 20 -20 0 -19 7 -20
100 -20 l100 0 0 40 c0 33 -3 40 -20 40 -13 0 -20 7 -20 20 0 17 -7 20 -40 20
-33 0 -40 -3 -40 -20 0 -13 -7 -20 -20 -20 -13 0 -20 -7 -20 -20 0 -13 -7 -20
-20 -20 -13 0 -20 7 -20 20 0 13 7 20 19 20 10 0 21 9 24 20 3 11 12 20 21 20
13 0 16 12 16 60 l0 60 40 0 c33 0 40 3 40 20 0 17 -7 20 -40 20 -29 0 -40 4
-40 15 0 11 -11 15 -40 15 -36 0 -40 3 -40 25 0 18 -5 25 -20 25 -11 0 -20 7
-20 15 0 12 -15 15 -75 15 l-75 0 0 -41 0 -41 37 4 38 3 -3 -38 c-3 -34 -1
-37 22 -37 19 0 26 -5 26 -20 0 -15 -7 -20 -25 -20 -18 0 -25 5 -25 20 0 11
-6 20 -14 20 -7 0 -16 9 -19 20 -3 11 -12 20 -21 20 -9 0 -16 -8 -16 -20 0
-13 -7 -20 -20 -20 -13 0 -20 7 -20 20 0 13 -7 20 -19 20 -10 0 -21 9 -24 20
-3 13 -10 18 -21 14 -12 -5 -16 0 -16 20 0 19 5 26 20 26 11 0 20 7 20 15 0
11 -11 15 -40 15 -36 0 -40 3 -40 24 0 16 5 23 17 22 10 0 19 7 21 17 3 14 -4
17 -37 17 -31 0 -41 -4 -41 -16 0 -9 -9 -18 -20 -21 -11 -3 -20 -14 -20 -24 0
-12 -7 -19 -20 -19 -13 0 -20 7 -20 20 0 13 7 20 20 20 17 0 20 7 20 40 l0 40
80 0 c73 0 80 -2 80 -20 0 -13 7 -20 20 -20 13 0 20 7 20 19 0 10 9 21 20 24
11 3 20 12 20 21 0 9 8 16 20 16 17 0 20 -7 20 -40 0 -28 4 -40 14 -40 9 0 15
14 18 40 3 33 0 40 -14 40 -11 0 -18 8 -18 20 0 11 7 20 15 20 11 0 15 11 15
40 0 29 -4 40 -15 40 -8 0 -15 9 -15 20 0 18 -7 20 -80 20 -73 0 -80 2 -80 20
0 13 -7 20 -20 20 -13 0 -20 7 -20 20 0 13 7 20 20 20 17 0 20 7 20 40 0 33
-3 40 -20 40 -17 0 -20 -7 -20 -40 l0 -40 -40 0 c-33 0 -40 3 -40 20 0 13 -7
20 -20 20 -13 0 -20 -7 -20 -20 0 -13 -7 -20 -20 -20 -13 0 -20 -7 -20 -20 0
-17 -7 -20 -40 -20 -33 0 -40 -3 -40 -20 0 -13 7 -20 20 -20 13 0 20 -7 20
-20 0 -18 -7 -20 -60 -20 -53 0 -60 2 -60 20 0 13 7 20 20 20 13 0 20 7 20 20
0 13 -7 20 -20 20 -13 0 -20 7 -20 20 0 18 7 20 60 20 53 0 60 2 60 20 0 13 7
20 20 20 13 0 20 7 20 20 0 18 7 20 60 20 l60 0 0 40 c0 33 3 40 20 40 13 0
20 -7 20 -20 0 -17 7 -20 40 -20 l40 0 0 40 c0 33 3 40 20 40 17 0 20 -7 20
-40 0 -33 3 -40 20 -40 13 0 20 7 20 20 0 13 7 20 20 20 17 0 20 -7 20 -40 0
-33 3 -40 19 -40 14 0 18 -5 14 -20 -3 -11 -12 -20 -19 -20 -8 0 -14 -9 -14
-20 0 -13 -7 -20 -20 -20 -13 0 -20 7 -20 20 0 13 -7 20 -20 20 -13 0 -20 7
-20 20 0 13 -7 20 -20 20 -13 0 -20 -7 -20 -20 0 -13 7 -20 20 -20 17 0 20 -7
20 -40 l0 -40 55 0 55 0 0 -40 c0 -36 3 -40 25 -40 23 0 25 -4 25 -40 0 -40 0
-40 40 -40 32 0 38 -3 33 -16 -4 -10 1 -17 16 -21 27 -7 29 -43 1 -43 -13 0
-20 -7 -20 -20 0 -13 -7 -20 -20 -20 -13 0 -20 7 -20 20 0 11 -7 20 -15 20 -8
0 -15 -9 -15 -20 0 -11 7 -20 15 -20 11 0 15 -11 15 -40 0 -33 3 -40 20 -40
17 0 20 7 20 40 0 33 3 40 19 40 16 0 20 -8 23 -37 2 -27 8 -39 21 -41 11 -2
17 3 17 16 0 10 3 21 6 25 11 11 34 -5 34 -24 0 -12 7 -19 20 -19 13 0 20 7
20 20 0 13 7 20 20 20 13 0 20 7 20 20 0 13 -7 20 -20 20 -13 0 -20 -7 -20
-20 0 -13 -7 -20 -20 -20 -17 0 -20 7 -20 40 l0 40 40 0 c33 0 40 -3 40 -20 0
-13 7 -20 20 -20 13 0 20 7 20 20 0 13 7 20 20 20 17 0 20 -7 20 -40 0 -33 3
-40 20 -40 17 0 20 7 20 40 0 33 -3 40 -20 40 -13 0 -20 7 -20 20 0 17 7 20
40 20 l40 0 0 -61 c0 -56 2 -61 20 -56 16 4 20 0 20 -19 0 -23 3 -24 60 -24
57 0 60 1 60 24 0 19 4 23 20 19 15 -4 20 0 20 16 0 18 -6 21 -40 21 -33 0
-40 3 -40 20 0 17 7 20 40 20 33 0 40 3 40 20 0 19 -7 20 -100 20 -93 0 -100
1 -100 20 0 17 -7 20 -40 20 l-40 0 0 60 c0 53 2 60 20 60 17 0 20 -7 20 -40
l0 -40 40 0 c33 0 40 -3 40 -20 0 -13 7 -20 20 -20 13 0 20 7 20 20 0 13 -7
20 -20 20 -13 0 -20 7 -20 20 0 13 -7 20 -20 20 -13 0 -20 7 -20 20 0 13 7 20
20 20 13 0 20 7 20 20 0 13 7 20 20 20 13 0 20 -7 20 -20 0 -13 7 -20 20 -20
13 0 20 -7 20 -20 0 -13 7 -20 20 -20 13 0 20 -7 20 -20 0 -13 7 -20 20 -20
13 0 20 7 20 20 0 13 -7 20 -20 20 -13 0 -20 7 -20 20 0 13 7 20 20 20 18 0
20 7 20 60 0 53 -2 60 -20 60 -17 0 -20 7 -20 40 0 33 3 40 20 40 17 0 20 7
20 40 l0 40 -40 0 -40 0 0 40 c0 33 3 40 20 40 13 0 20 7 20 20 0 13 7 20 20
20 13 0 20 7 20 20 0 17 -7 20 -40 20 -33 0 -40 -3 -40 -20 0 -13 -7 -20 -20
-20 -13 0 -20 7 -20 20 0 13 -7 20 -20 20 -13 0 -20 -7 -20 -20 0 -13 7 -20
20 -20 17 0 20 -7 20 -40 0 -33 -3 -40 -20 -40 -13 0 -20 7 -20 20 0 13 -7 20
-20 20 -13 0 -20 7 -20 20 0 13 -7 20 -20 20 -13 0 -20 7 -20 20 0 13 -7 20
-20 20 -13 0 -20 -7 -20 -20 0 -13 7 -20 20 -20 18 0 20 -7 20 -60 0 -53 -2
-60 -20 -60 -17 0 -20 7 -20 40 0 33 -3 40 -20 40 -17 0 -20 -7 -20 -40 l0
-40 -60 0 c-53 0 -60 2 -60 20 0 13 -7 20 -20 20 -17 0 -20 -7 -20 -40 0 -33
-3 -40 -20 -40 -13 0 -20 7 -20 20 0 17 -7 20 -40 20 -33 0 -40 -3 -40 -20 0
-11 -7 -20 -15 -20 -8 0 -15 -9 -15 -20 0 -15 -7 -20 -25 -20 -22 0 -25 4 -25
40 0 29 -4 40 -15 40 -8 0 -15 9 -15 20 0 13 7 20 19 20 14 0 18 -5 14 -20 -4
-16 0 -20 21 -20 19 0 26 5 26 20 0 18 7 20 55 20 48 0 55 2 55 20 0 18 7 20
60 20 53 0 60 2 60 20 0 18 -7 20 -60 20 -53 0 -60 -2 -60 -20 0 -14 -7 -20
-21 -20 -17 0 -20 5 -17 38 3 35 5 37 41 40 36 3 37 4 37 43 0 32 -3 39 -20
39 -13 0 -20 -7 -20 -20 0 -13 -7 -20 -20 -20 -17 0 -20 7 -20 40 0 33 -3 40
-20 40 -19 0 -20 -7 -20 -100 0 -82 -3 -100 -15 -100 -8 0 -15 9 -15 20 0 15
-7 20 -26 20 -21 0 -25 -4 -21 -20 4 -15 0 -20 -14 -20 -12 0 -19 7 -19 20 0
11 7 20 15 20 11 0 15 11 15 40 0 36 2 40 26 40 23 0 25 3 22 38 -2 30 -7 38
-25 40 -15 2 -23 10 -23 23 0 10 -7 19 -15 19 -8 0 -15 -9 -15 -20 0 -17 -7
-20 -40 -20 -33 0 -40 3 -40 20 0 13 7 20 20 20 13 0 20 7 20 20 0 17 7 20 39
20 34 0 38 3 34 20 -4 15 -14 20 -38 20 -24 0 -34 5 -38 20 -3 11 -12 20 -21
20 -9 0 -16 -8 -16 -20 0 -13 7 -20 20 -20 13 0 20 -7 20 -20 0 -13 -7 -20
-20 -20 -12 0 -20 7 -20 16 0 9 -9 18 -20 21 -15 4 -20 14 -20 39 l0 34 -60 0
c-47 0 -60 -3 -60 -15z m120 -115 c0 -53 2 -60 20 -60 13 0 20 -7 20 -20 0
-12 7 -20 16 -20 9 0 18 -9 21 -20 3 -11 14 -20 24 -20 12 0 19 7 19 20 0 11
7 20 15 20 8 0 15 -9 15 -20 0 -11 -7 -20 -15 -20 -8 0 -15 -9 -15 -20 0 -13
-7 -20 -20 -20 -13 0 -20 -7 -20 -20 0 -13 -7 -20 -20 -20 -13 0 -20 -7 -20
-20 0 -13 7 -20 20 -20 17 0 20 -7 20 -40 0 -33 -3 -40 -20 -40 -17 0 -20 7
-20 40 0 33 -3 40 -20 40 -17 0 -20 -7 -20 -40 l0 -40 -40 0 c-33 0 -40 3 -40
20 0 13 -7 20 -20 20 -13 0 -20 7 -20 20 0 13 -7 20 -20 20 -17 0 -20 -7 -20
-40 0 -33 3 -40 20 -40 13 0 20 -7 20 -20 0 -13 -7 -20 -20 -20 -13 0 -20 -7
-20 -20 0 -13 -7 -20 -20 -20 -17 0 -20 7 -20 40 0 33 -3 40 -20 40 -13 0 -20
7 -20 20 0 13 -7 20 -20 20 -13 0 -20 7 -20 20 0 13 -7 20 -20 20 -13 0 -20
-7 -20 -20 0 -13 -7 -20 -20 -20 -13 0 -20 7 -20 20 0 13 -7 20 -20 20 -13 0
-20 7 -20 20 0 17 7 20 40 20 33 0 40 3 40 20 0 13 7 20 20 20 13 0 20 -7 20
-20 0 -13 7 -20 20 -20 13 0 20 -7 20 -20 0 -17 7 -20 40 -20 33 0 40 3 40 20
0 13 -7 20 -20 20 -13 0 -20 7 -20 20 0 13 -7 20 -20 20 -13 0 -20 7 -20 20 0
13 7 20 20 20 17 0 20 7 20 40 0 33 3 40 20 40 17 0 20 -7 20 -40 0 -33 3 -40
20 -40 13 0 20 7 20 20 0 13 7 20 20 20 13 0 20 -7 20 -20 0 -13 -7 -20 -20
-20 -13 0 -20 -7 -20 -20 0 -18 7 -20 80 -20 l80 0 0 40 c0 33 -3 40 -20 40
-13 0 -20 -7 -20 -20 0 -13 -7 -20 -20 -20 -13 0 -20 7 -20 20 0 13 7 20 20
20 13 0 20 7 20 20 0 13 -7 20 -20 20 -18 0 -20 7 -20 60 0 53 2 60 20 60 18
0 20 -7 20 -60z m310 -420 l0 -40 40 0 c33 0 40 3 40 20 0 18 7 20 60 20 53 0
60 2 60 20 0 13 7 20 20 20 13 0 20 -7 20 -20 0 -17 7 -20 40 -20 33 0 40 -3
40 -20 0 -17 -7 -20 -40 -20 -33 0 -40 -3 -40 -20 0 -18 7 -20 60 -20 l60 0 0
40 c0 33 3 40 20 40 13 0 20 7 20 20 0 13 7 20 20 20 13 0 20 -7 20 -20 0 -13
-7 -20 -20 -20 -13 0 -20 -7 -20 -20 0 -13 7 -20 20 -20 13 0 20 -7 20 -20 0
-13 7 -20 20 -20 13 0 20 -7 20 -20 0 -13 -7 -20 -20 -20 -13 0 -20 7 -20 20
0 17 -7 20 -40 20 l-40 0 0 -40 0 -40 -40 0 c-33 0 -40 3 -40 20 0 13 -7 20
-20 20 -13 0 -20 7 -20 20 0 17 -7 20 -40 20 -33 0 -40 -3 -40 -20 0 -13 -7
-20 -20 -20 -13 0 -20 7 -20 20 0 17 -7 20 -40 20 -33 0 -40 -3 -40 -20 0 -17
-7 -20 -40 -20 -33 0 -40 3 -40 20 0 13 -7 20 -20 20 -17 0 -20 -7 -20 -40 l0
-40 40 0 c33 0 40 -3 40 -20 0 -13 7 -20 20 -20 13 0 20 7 20 20 0 13 7 20 20
20 13 0 20 -7 20 -20 0 -18 7 -20 60 -20 53 0 60 2 60 20 0 13 7 20 20 20 13
0 20 -7 20 -20 0 -13 -7 -20 -20 -20 -13 0 -20 -7 -20 -20 0 -17 -7 -20 -40
-20 -33 0 -40 -3 -40 -20 0 -13 7 -20 20 -20 13 0 20 -7 20 -20 0 -13 7 -20
20 -20 17 0 20 -7 20 -40 0 -33 -3 -40 -20 -40 -13 0 -20 7 -20 20 0 17 -7 20
-40 20 -33 0 -40 3 -40 20 0 12 -7 20 -16 20 -9 0 -18 9 -21 20 -3 11 -14 20
-24 20 -12 0 -19 7 -19 20 0 13 -7 20 -20 20 -13 0 -20 -7 -20 -20 0 -13 -7
-20 -20 -20 -13 0 -20 7 -20 20 0 11 -7 20 -15 20 -8 0 -15 9 -15 20 0 11 7
20 15 20 8 0 15 9 15 20 0 17 -7 20 -40 20 l-40 0 0 40 c0 36 3 40 25 40 18 0
25 5 25 20 0 11 7 20 15 20 11 0 15 11 15 40 l0 40 40 0 40 0 0 -40z m-350
-240 c0 -33 3 -40 20 -40 13 0 20 -7 20 -20 0 -17 7 -20 40 -20 33 0 40 3 40
20 0 13 7 20 20 20 13 0 20 -7 20 -20 0 -13 -7 -20 -20 -20 -13 0 -20 -7 -20
-20 0 -13 -7 -20 -20 -20 -13 0 -20 -7 -20 -20 0 -13 -7 -20 -20 -20 -13 0
-20 7 -20 20 0 13 -7 20 -20 20 -13 0 -20 7 -20 20 0 13 -7 20 -20 20 -13 0
-20 -7 -20 -20 0 -17 -7 -20 -40 -20 -33 0 -40 -3 -40 -20 0 -13 -7 -20 -20
-20 -17 0 -20 -7 -20 -40 0 -33 -3 -40 -20 -40 -13 0 -20 7 -20 20 0 13 -7 20
-20 20 -13 0 -20 7 -20 20 0 13 -7 20 -20 20 -13 0 -20 7 -20 20 0 13 -7 20
-20 20 -13 0 -20 -7 -20 -20 0 -17 -7 -20 -40 -20 -33 0 -40 -3 -40 -20 0 -13
-7 -20 -20 -20 -13 0 -20 -7 -20 -20 0 -13 -7 -20 -20 -20 -17 0 -20 7 -20 40
0 33 3 40 20 40 17 0 20 7 20 40 0 33 3 40 20 40 13 0 20 7 20 20 0 13 -7 20
-20 20 -13 0 -20 7 -20 20 0 17 7 20 40 20 33 0 40 -3 40 -20 0 -19 7 -20 100
-20 93 0 100 1 100 20 0 13 7 20 20 20 13 0 20 7 20 20 0 18 7 20 60 20 l60 0
0 -40z"/>
<path d="M7080 2725 l0 -34 -57 -3 -58 -3 -3 -37 c-3 -33 0 -38 17 -38 14 0
21 -6 21 -20 0 -13 7 -20 20 -20 13 0 20 7 20 20 0 13 7 20 20 20 18 0 20 -7
20 -60 0 -53 2 -60 20 -60 17 0 20 7 20 40 0 33 3 40 20 40 17 0 20 -7 20 -40
0 -33 3 -40 20 -40 19 0 20 7 20 100 l0 100 -36 0 c-27 0 -37 -5 -41 -20 -3
-11 -14 -20 -24 -20 -12 0 -19 7 -19 20 0 13 7 20 20 20 16 0 20 7 20 35 0 28
-4 35 -20 35 -16 0 -20 -7 -20 -35z"/>
<path d="M7240 2625 l0 -135 140 0 140 0 0 135 0 135 -140 0 -140 0 0 -135z
m240 5 l0 -100 -100 0 -100 0 0 100 0 100 100 0 100 0 0 -100z"/>
<path d="M2821 2534 c-25 -32 -25 -37 -6 -73 27 -54 109 -46 129 12 24 67 -78
118 -123 61z"/>
<path d="M9693 2547 c15 -13 16 -18 3 -53 -30 -86 -128 -226 -210 -302 -39
-36 -49 -41 -66 -32 -15 8 -20 8 -20 -2 0 -7 27 -31 60 -53 33 -22 60 -44 60
-50 0 -5 -75 -115 -166 -242 l-166 -233 -32 25 c-50 38 -69 33 -115 -32 -23
-32 -41 -65 -41 -75 0 -18 25 -39 182 -151 59 -42 114 -77 122 -77 17 0 61 54
105 129 42 70 341 491 350 491 3 0 15 -7 25 -15 27 -20 49 -19 77 4 18 15 28
17 43 9 23 -12 114 -3 160 16 46 19 76 66 80 123 3 57 -10 122 -29 143 -10 11
-13 30 -10 60 l5 45 -196 139 c-108 76 -206 141 -218 143 -20 4 -20 4 -3 -10z
m210 -216 c86 -62 157 -114 157 -116 0 -18 -26 -55 -37 -51 -7 3 -84 56 -171
118 l-159 113 15 32 c10 20 20 29 26 24 6 -4 82 -58 169 -120z"/>
<path d="M2752 2333 c-42 -4 -43 -5 -99 -101 -75 -127 -88 -166 -73 -214 6
-21 19 -42 30 -48 35 -19 94 -11 141 18 57 37 219 219 219 247 0 4 -31 -33
-68 -82 -75 -96 -152 -163 -189 -163 -19 0 -23 5 -23 30 0 35 27 91 104 219
52 85 53 89 33 95 -12 3 -24 5 -27 4 -3 -1 -24 -3 -48 -5z"/>
<path d="M19075 2177 c-66 -57 -493 -415 -950 -796 -456 -382 -1013 -847
-1237 -1035 l-408 -341 1212 -3 c959 -2 1214 1 1226 10 13 11 15 10 8 -2 -4
-8 2 -2 15 13 12 16 32 33 45 38 13 4 24 16 24 26 0 15 2 16 10 3 8 -13 10
-13 10 1 0 9 10 24 23 35 l22 19 -20 -25 -20 -25 23 19 c12 11 22 25 22 32 0
7 4 16 10 19 6 3 8 -2 5 -12 -3 -10 1 -5 8 11 10 20 16 25 20 15 4 -11 6 -10
6 2 1 9 9 23 18 30 14 12 16 12 8 0 -5 -10 -4 -12 3 -7 7 4 12 13 12 21 0 8 5
17 12 21 7 5 8 3 3 -6 -5 -9 -4 -11 3 -6 9 5 12 276 12 1026 0 561 -1 1020 -2
1020 -2 -1 -57 -47 -123 -103z"/>
<path d="M7240 1675 c0 -11 -11 -15 -40 -15 l-40 0 0 -120 0 -120 40 0 c33 0
40 -3 40 -20 0 -13 -7 -20 -20 -20 -13 0 -20 -7 -20 -20 0 -13 7 -20 20 -20
13 0 20 7 20 20 0 13 7 20 20 20 13 0 20 -7 20 -20 0 -13 7 -20 20 -20 13 0
20 -7 20 -20 0 -19 7 -20 100 -20 93 0 100 1 100 20 0 17 -7 20 -40 20 -33 0
-40 3 -40 20 0 17 -7 20 -40 20 l-40 0 0 40 c0 33 3 40 20 40 13 0 20 7 20 20
0 13 -7 20 -20 20 -18 0 -20 7 -20 80 l0 80 -40 0 c-29 0 -40 4 -40 15 0 8 -9
15 -20 15 -11 0 -20 -7 -20 -15z"/>
<path d="M4290 1460 l0 -140 138 0 137 0 -3 140 -3 140 -135 0 -134 0 0 -140z
m240 0 l0 -100 -100 0 -100 0 0 100 0 100 100 0 100 0 0 -100z"/>
<path d="M6050 1440 l0 -140 140 0 140 0 0 140 0 140 -140 0 -140 0 0 -140z
m240 0 l0 -100 -100 0 -100 0 0 100 0 100 100 0 100 0 0 -100z"/>
</g>
</svg>
